<?xml version="1.0" encoding="UTF-8" standalone="no"?>
<!DOCTYPE svg PUBLIC "-//W3C//DTD SVG 1.1//EN"
 "http://www.w3.org/Graphics/SVG/1.1/DTD/svg11.dtd">
<!-- Generated by graphviz version 2.36.0 (20140111.2315)
 -->
<!-- Title: ic.populacional.Caracteristica Pages: 1 -->
<svg width="343pt" height="376pt"
 viewBox="0.00 0.00 343.00 376.00" xmlns="http://www.w3.org/2000/svg" xmlns:xlink="http://www.w3.org/1999/xlink">
<g id="graph0" class="graph" transform="scale(1 1) rotate(0) translate(4 372)">
<title>ic.populacional.Caracteristica</title>
<polygon fill="white" stroke="none" points="-4,4 -4,-372 339,-372 339,4 -4,4"/>
<!-- Node1 -->
<g id="node1" class="node"><title>Node1</title>
<polygon fill="#bfbfbf" stroke="black" points="88,-172.5 88,-273.5 240,-273.5 240,-172.5 88,-172.5"/>
<text text-anchor="middle" x="164" y="-261.5" font-family="Helvetica,sans-Serif" font-size="10.00">ic.populacional.Caracteristica</text>
<polyline fill="none" stroke="black" points="88,-254.5 240,-254.5 "/>
<text text-anchor="middle" x="164" y="-242.5" font-family="Helvetica,sans-Serif" font-size="10.00"> </text>
<polyline fill="none" stroke="black" points="88,-235.5 240,-235.5 "/>
<text text-anchor="start" x="96" y="-223.5" font-family="Helvetica,sans-Serif" font-size="10.00">+ getRepresentacaoNumerica()</text>
<text text-anchor="start" x="96" y="-212.5" font-family="Helvetica,sans-Serif" font-size="10.00">+ setRepresentacaoNumerica()</text>
<text text-anchor="start" x="96" y="-201.5" font-family="Helvetica,sans-Serif" font-size="10.00">+ copia()</text>
<text text-anchor="start" x="96" y="-190.5" font-family="Helvetica,sans-Serif" font-size="10.00">+ equals()</text>
<text text-anchor="start" x="96" y="-179.5" font-family="Helvetica,sans-Serif" font-size="10.00">+ toString()</text>
</g>
<!-- Node3 -->
<g id="node3" class="node"><title>Node3</title>
<g id="a_node3"><a xlink:href="classic_1_1populacional_1_1_caracteristica_binaria.html" target="_top" xlink:title="{ic.populacional.Caracteristica\lBinaria\n|&#45; set\l|+ CaracteristicaBinaria()\l+ CaracteristicaBinaria()\l+ getRepresentacaoNumerica()\l+ getBit()\l+ setBit()\l+ setRepresentacaoNumerica()\l}">
<polygon fill="white" stroke="black" points="0,-6.5 0,-129.5 152,-129.5 152,-6.5 0,-6.5"/>
<text text-anchor="start" x="8" y="-117.5" font-family="Helvetica,sans-Serif" font-size="10.00">ic.populacional.Caracteristica</text>
<text text-anchor="middle" x="76" y="-106.5" font-family="Helvetica,sans-Serif" font-size="10.00">Binaria</text>
<polyline fill="none" stroke="black" points="0,-99.5 152,-99.5 "/>
<text text-anchor="start" x="8" y="-87.5" font-family="Helvetica,sans-Serif" font-size="10.00">&#45; set</text>
<polyline fill="none" stroke="black" points="0,-80.5 152,-80.5 "/>
<text text-anchor="start" x="8" y="-68.5" font-family="Helvetica,sans-Serif" font-size="10.00">+ CaracteristicaBinaria()</text>
<text text-anchor="start" x="8" y="-57.5" font-family="Helvetica,sans-Serif" font-size="10.00">+ CaracteristicaBinaria()</text>
<text text-anchor="start" x="8" y="-46.5" font-family="Helvetica,sans-Serif" font-size="10.00">+ getRepresentacaoNumerica()</text>
<text text-anchor="start" x="8" y="-35.5" font-family="Helvetica,sans-Serif" font-size="10.00">+ getBit()</text>
<text text-anchor="start" x="8" y="-24.5" font-family="Helvetica,sans-Serif" font-size="10.00">+ setBit()</text>
<text text-anchor="start" x="8" y="-13.5" font-family="Helvetica,sans-Serif" font-size="10.00">+ setRepresentacaoNumerica()</text>
</a>
</g>
</g>
<!-- Node1&#45;&gt;Node3 -->
<g id="edge2" class="edge"><title>Node1&#45;&gt;Node3</title>
<path fill="none" stroke="midnightblue" d="M130.386,-163.558C124.002,-152.457 117.308,-140.819 110.885,-129.652"/>
<polygon fill="none" stroke="midnightblue" points="127.409,-165.402 135.429,-172.325 133.477,-161.912 127.409,-165.402"/>
</g>
<!-- Node4 -->
<g id="node4" class="node"><title>Node4</title>
<g id="a_node4"><a xlink:href="classic_1_1populacional_1_1seres_1_1permutacao_1_1_locus_permutacao.html" target="_top" xlink:title="{ic.populacional.seres.permutacao.\lLocusPermutacao\n|~ locus\l|+ LocusPermutacao()\l+ getRepresentacaoNumerica()\l+ setRepresentacaoNumerica()\l+ copia()\l+ equals()\l+ toString()\l+ compareTo()\l}">
<polygon fill="white" stroke="black" points="170.5,-1 170.5,-135 335.5,-135 335.5,-1 170.5,-1"/>
<text text-anchor="start" x="178.5" y="-123" font-family="Helvetica,sans-Serif" font-size="10.00">ic.populacional.seres.permutacao.</text>
<text text-anchor="middle" x="253" y="-112" font-family="Helvetica,sans-Serif" font-size="10.00">LocusPermutacao</text>
<polyline fill="none" stroke="black" points="170.5,-105 335.5,-105 "/>
<text text-anchor="start" x="178.5" y="-93" font-family="Helvetica,sans-Serif" font-size="10.00">~ locus</text>
<polyline fill="none" stroke="black" points="170.5,-86 335.5,-86 "/>
<text text-anchor="start" x="178.5" y="-74" font-family="Helvetica,sans-Serif" font-size="10.00">+ LocusPermutacao()</text>
<text text-anchor="start" x="178.5" y="-63" font-family="Helvetica,sans-Serif" font-size="10.00">+ getRepresentacaoNumerica()</text>
<text text-anchor="start" x="178.5" y="-52" font-family="Helvetica,sans-Serif" font-size="10.00">+ setRepresentacaoNumerica()</text>
<text text-anchor="start" x="178.5" y="-41" font-family="Helvetica,sans-Serif" font-size="10.00">+ copia()</text>
<text text-anchor="start" x="178.5" y="-30" font-family="Helvetica,sans-Serif" font-size="10.00">+ equals()</text>
<text text-anchor="start" x="178.5" y="-19" font-family="Helvetica,sans-Serif" font-size="10.00">+ toString()</text>
<text text-anchor="start" x="178.5" y="-8" font-family="Helvetica,sans-Serif" font-size="10.00">+ compareTo()</text>
</a>
</g>
</g>
<!-- Node1&#45;&gt;Node4 -->
<g id="edge3" class="edge"><title>Node1&#45;&gt;Node4</title>
<path fill="none" stroke="midnightblue" d="M198.001,-163.549C203.407,-154.255 209.033,-144.584 214.533,-135.128"/>
<polygon fill="none" stroke="midnightblue" points="194.899,-161.921 192.896,-172.325 200.949,-165.441 194.899,-161.921"/>
</g>
<!-- Node2 -->
<g id="node2" class="node"><title>Node2</title>
<polygon fill="white" stroke="#bfbfbf" points="106.5,-310.5 106.5,-367.5 221.5,-367.5 221.5,-310.5 106.5,-310.5"/>
<text text-anchor="middle" x="164" y="-355.5" font-family="Helvetica,sans-Serif" font-size="10.00">Comparable&lt; Object &gt;</text>
<polyline fill="none" stroke="#bfbfbf" points="106.5,-348.5 221.5,-348.5 "/>
<text text-anchor="middle" x="164" y="-336.5" font-family="Helvetica,sans-Serif" font-size="10.00"> </text>
<polyline fill="none" stroke="#bfbfbf" points="106.5,-329.5 221.5,-329.5 "/>
<text text-anchor="middle" x="164" y="-317.5" font-family="Helvetica,sans-Serif" font-size="10.00"> </text>
</g>
<!-- Node2&#45;&gt;Node1 -->
<g id="edge1" class="edge"><title>Node2&#45;&gt;Node1</title>
<path fill="none" stroke="midnightblue" d="M164,-300.354C164,-291.796 164,-282.578 164,-273.608"/>
<polygon fill="none" stroke="midnightblue" points="160.5,-300.404 164,-310.404 167.5,-300.404 160.5,-300.404"/>
</g>
</g>
</svg>
