<?xml version="1.0" encoding="UTF-8" standalone="no"?>
<!DOCTYPE svg PUBLIC "-//W3C//DTD SVG 1.1//EN"
 "http://www.w3.org/Graphics/SVG/1.1/DTD/svg11.dtd">
<!-- Generated by graphviz version 2.36.0 (20140111.2315)
 -->
<!-- Title: ic.populacional.seres.permutacao.LocusPermutacao.LocusPermutacao Pages: 1 -->
<svg width="388pt" height="136pt"
 viewBox="0.00 0.00 388.00 136.00" xmlns="http://www.w3.org/2000/svg" xmlns:xlink="http://www.w3.org/1999/xlink">
<g id="graph0" class="graph" transform="scale(1 1) rotate(0) translate(4 132)">
<title>ic.populacional.seres.permutacao.LocusPermutacao.LocusPermutacao</title>
<polygon fill="white" stroke="none" points="-4,4 -4,-132 384,-132 384,4 -4,4"/>
<!-- Node1 -->
<g id="node1" class="node"><title>Node1</title>
<polygon fill="#bfbfbf" stroke="black" points="0.5,-49 0.5,-79 177.5,-79 177.5,-49 0.5,-49"/>
<text text-anchor="start" x="8.5" y="-67" font-family="Helvetica,sans-Serif" font-size="10.00">ic.populacional.seres.permutacao.</text>
<text text-anchor="middle" x="89" y="-56" font-family="Helvetica,sans-Serif" font-size="10.00">LocusPermutacao.LocusPermutacao</text>
</g>
<!-- Node2 -->
<g id="node2" class="node"><title>Node2</title>
<g id="a_node2"><a xlink:href="classic_1_1populacional_1_1seres_1_1permutacao_1_1_locus_permutacao.html#a1f988e306c66b686cc0aeaa71f7b8d4a" target="_top" xlink:title="ic.populacional.seres.permutacao.\lLocusPermutacao.copia">
<polygon fill="white" stroke="black" points="214.5,-98 214.5,-128 379.5,-128 379.5,-98 214.5,-98"/>
<text text-anchor="start" x="222.5" y="-116" font-family="Helvetica,sans-Serif" font-size="10.00">ic.populacional.seres.permutacao.</text>
<text text-anchor="middle" x="297" y="-105" font-family="Helvetica,sans-Serif" font-size="10.00">LocusPermutacao.copia</text>
</a>
</g>
</g>
<!-- Node1&#45;&gt;Node2 -->
<g id="edge1" class="edge"><title>Node1&#45;&gt;Node2</title>
<path fill="none" stroke="midnightblue" d="M163.167,-81.4038C185.955,-86.8243 210.876,-92.752 232.913,-97.9938"/>
<polygon fill="midnightblue" stroke="midnightblue" points="163.745,-77.9438 153.207,-79.0346 162.125,-84.7538 163.745,-77.9438"/>
</g>
<!-- Node3 -->
<g id="node3" class="node"><title>Node3</title>
<g id="a_node3"><a xlink:href="classic_1_1populacional_1_1seres_1_1permutacao_1_1_locus_permutacao.html#af662735591d636678c7eeafda9d1ed92" target="_top" xlink:title="ic.populacional.seres.permutacao.\lLocusPermutacao.equals">
<polygon fill="white" stroke="black" points="214.5,-49 214.5,-79 379.5,-79 379.5,-49 214.5,-49"/>
<text text-anchor="start" x="222.5" y="-67" font-family="Helvetica,sans-Serif" font-size="10.00">ic.populacional.seres.permutacao.</text>
<text text-anchor="middle" x="297" y="-56" font-family="Helvetica,sans-Serif" font-size="10.00">LocusPermutacao.equals</text>
</a>
</g>
</g>
<!-- Node1&#45;&gt;Node3 -->
<g id="edge2" class="edge"><title>Node1&#45;&gt;Node3</title>
<path fill="none" stroke="midnightblue" d="M187.684,-64C196.593,-64 205.556,-64 214.304,-64"/>
<polygon fill="midnightblue" stroke="midnightblue" points="187.661,-60.5001 177.661,-64 187.661,-67.5001 187.661,-60.5001"/>
</g>
<!-- Node4 -->
<g id="node4" class="node"><title>Node4</title>
<g id="a_node4"><a xlink:href="classic_1_1populacional_1_1seres_1_1permutacao_1_1_locus_permutacao.html#ac9c43169acfa7e599ab09c3d26fc20af" target="_top" xlink:title="ic.populacional.seres.permutacao.\lLocusPermutacao.compareTo">
<polygon fill="white" stroke="black" points="214.5,-0 214.5,-30 379.5,-30 379.5,-0 214.5,-0"/>
<text text-anchor="start" x="222.5" y="-18" font-family="Helvetica,sans-Serif" font-size="10.00">ic.populacional.seres.permutacao.</text>
<text text-anchor="middle" x="297" y="-7" font-family="Helvetica,sans-Serif" font-size="10.00">LocusPermutacao.compareTo</text>
</a>
</g>
</g>
<!-- Node1&#45;&gt;Node4 -->
<g id="edge3" class="edge"><title>Node1&#45;&gt;Node4</title>
<path fill="none" stroke="midnightblue" d="M163.167,-46.5962C185.955,-41.1757 210.876,-35.248 232.913,-30.0062"/>
<polygon fill="midnightblue" stroke="midnightblue" points="162.125,-43.2462 153.207,-48.9654 163.745,-50.0562 162.125,-43.2462"/>
</g>
</g>
</svg>
