<?xml version="1.0" encoding="UTF-8" standalone="no"?>
<!DOCTYPE svg PUBLIC "-//W3C//DTD SVG 1.1//EN"
 "http://www.w3.org/Graphics/SVG/1.1/DTD/svg11.dtd">
<!-- Generated by graphviz version 2.36.0 (20140111.2315)
 -->
<!-- Title: ic.populacional.Ser&lt; N extends Number &gt; Pages: 1 -->
<svg width="331pt" height="348pt"
 viewBox="0.00 0.00 331.00 348.00" xmlns="http://www.w3.org/2000/svg" xmlns:xlink="http://www.w3.org/1999/xlink">
<g id="graph0" class="graph" transform="scale(1 1) rotate(0) translate(4 344)">
<title>ic.populacional.Ser&lt; N extends Number &gt;</title>
<polygon fill="white" stroke="none" points="-4,4 -4,-344 327,-344 327,4 -4,4"/>
<!-- Node1 -->
<g id="node1" class="node"><title>Node1</title>
<polygon fill="#bfbfbf" stroke="black" points="80.5,-0.5 80.5,-233.5 215.5,-233.5 215.5,-0.5 80.5,-0.5"/>
<text text-anchor="start" x="88.5" y="-221.5" font-family="Helvetica,sans-Serif" font-size="10.00">ic.populacional.Ser</text>
<text text-anchor="middle" x="148" y="-210.5" font-family="Helvetica,sans-Serif" font-size="10.00">&lt; N extends Number &gt;</text>
<polyline fill="none" stroke="black" points="80.5,-203.5 215.5,-203.5 "/>
<text text-anchor="start" x="88.5" y="-191.5" font-family="Helvetica,sans-Serif" font-size="10.00"># grauDeAdaptacao</text>
<polyline fill="none" stroke="black" points="80.5,-184.5 215.5,-184.5 "/>
<text text-anchor="start" x="88.5" y="-172.5" font-family="Helvetica,sans-Serif" font-size="10.00">+ setCaracteristicas()</text>
<text text-anchor="start" x="88.5" y="-161.5" font-family="Helvetica,sans-Serif" font-size="10.00">+ setCaracteristica()</text>
<text text-anchor="start" x="88.5" y="-150.5" font-family="Helvetica,sans-Serif" font-size="10.00">+ setCaracteristicaCopia()</text>
<text text-anchor="start" x="88.5" y="-139.5" font-family="Helvetica,sans-Serif" font-size="10.00">+ setCaracteristicas()</text>
<text text-anchor="start" x="88.5" y="-128.5" font-family="Helvetica,sans-Serif" font-size="10.00">+ setCaracteristicasCopia()</text>
<text text-anchor="start" x="88.5" y="-117.5" font-family="Helvetica,sans-Serif" font-size="10.00">+ getCaracteristicas()</text>
<text text-anchor="start" x="88.5" y="-106.5" font-family="Helvetica,sans-Serif" font-size="10.00">+ getCaracteristicasCopia()</text>
<text text-anchor="start" x="88.5" y="-95.5" font-family="Helvetica,sans-Serif" font-size="10.00">+ getCaracteristica()</text>
<text text-anchor="start" x="88.5" y="-84.5" font-family="Helvetica,sans-Serif" font-size="10.00">+ getTamanho()</text>
<text text-anchor="start" x="88.5" y="-73.5" font-family="Helvetica,sans-Serif" font-size="10.00">+ isCompativel()</text>
<text text-anchor="start" x="88.5" y="-62.5" font-family="Helvetica,sans-Serif" font-size="10.00">+ isCompativel()</text>
<text text-anchor="start" x="88.5" y="-51.5" font-family="Helvetica,sans-Serif" font-size="10.00">+ setGrauDeAdaptacao()</text>
<text text-anchor="start" x="88.5" y="-40.5" font-family="Helvetica,sans-Serif" font-size="10.00">+ getGrauDeAdaptacao()</text>
<text text-anchor="start" x="88.5" y="-29.5" font-family="Helvetica,sans-Serif" font-size="10.00">+ getEspecie()</text>
<text text-anchor="start" x="88.5" y="-18.5" font-family="Helvetica,sans-Serif" font-size="10.00">+ toString()</text>
<text text-anchor="start" x="88.5" y="-7.5" font-family="Helvetica,sans-Serif" font-size="10.00">+ iterator()</text>
</g>
<!-- Node2 -->
<g id="node2" class="node"><title>Node2</title>
<polygon fill="white" stroke="#bfbfbf" points="-0.5,-282.5 -0.5,-339.5 126.5,-339.5 126.5,-282.5 -0.5,-282.5"/>
<text text-anchor="middle" x="63" y="-327.5" font-family="Helvetica,sans-Serif" font-size="10.00">Iterable&lt; Caracteristica &gt;</text>
<polyline fill="none" stroke="#bfbfbf" points="-0.5,-320.5 126.5,-320.5 "/>
<text text-anchor="middle" x="63" y="-308.5" font-family="Helvetica,sans-Serif" font-size="10.00"> </text>
<polyline fill="none" stroke="#bfbfbf" points="-0.5,-301.5 126.5,-301.5 "/>
<text text-anchor="middle" x="63" y="-289.5" font-family="Helvetica,sans-Serif" font-size="10.00"> </text>
</g>
<!-- Node2&#45;&gt;Node1 -->
<g id="edge1" class="edge"><title>Node2&#45;&gt;Node1</title>
<path fill="none" stroke="midnightblue" d="M79.3207,-273.134C84.5058,-261.422 90.5424,-247.787 96.8442,-233.552"/>
<polygon fill="none" stroke="midnightblue" points="76.0262,-271.93 75.1784,-282.491 82.427,-274.764 76.0262,-271.93"/>
</g>
<!-- Node3 -->
<g id="node3" class="node"><title>Node3</title>
<polygon fill="white" stroke="#bfbfbf" points="145,-282.5 145,-339.5 323,-339.5 323,-282.5 145,-282.5"/>
<text text-anchor="middle" x="234" y="-327.5" font-family="Helvetica,sans-Serif" font-size="10.00">List&lt; ic.populacional.Caracteristica &gt;</text>
<polyline fill="none" stroke="#bfbfbf" points="145,-320.5 323,-320.5 "/>
<text text-anchor="middle" x="234" y="-308.5" font-family="Helvetica,sans-Serif" font-size="10.00"> </text>
<polyline fill="none" stroke="#bfbfbf" points="145,-301.5 323,-301.5 "/>
<text text-anchor="middle" x="234" y="-289.5" font-family="Helvetica,sans-Serif" font-size="10.00"> </text>
</g>
<!-- Node3&#45;&gt;Node1 -->
<g id="edge2" class="edge"><title>Node3&#45;&gt;Node1</title>
<path fill="none" stroke="#404040" d="M221.678,-282.491C216.867,-271.749 210.986,-258.62 204.666,-244.51"/>
<polygon fill="none" stroke="#404040" points="204.663,-244.503 198.56,-240.663 199.758,-233.552 205.861,-237.393 204.663,-244.503"/>
<text text-anchor="middle" x="250.5" y="-255.5" font-family="Helvetica,sans-Serif" font-size="10.00"> #caracteristicas</text>
</g>
</g>
</svg>
