<?xml version="1.0" encoding="UTF-8" standalone="no"?>
<!DOCTYPE svg PUBLIC "-//W3C//DTD SVG 1.1//EN"
 "http://www.w3.org/Graphics/SVG/1.1/DTD/svg11.dtd">
<!-- Generated by graphviz version 2.36.0 (20140111.2315)
 -->
<!-- Title: ic.populacional.algoritmo.operadores.Recombinador&lt; S extends Ser &gt; Pages: 1 -->
<svg width="200pt" height="282pt"
 viewBox="0.00 0.00 200.00 282.00" xmlns="http://www.w3.org/2000/svg" xmlns:xlink="http://www.w3.org/1999/xlink">
<g id="graph0" class="graph" transform="scale(1 1) rotate(0) translate(4 278)">
<title>ic.populacional.algoritmo.operadores.Recombinador&lt; S extends Ser &gt;</title>
<polygon fill="white" stroke="none" points="-4,4 -4,-278 196,-278 196,4 -4,4"/>
<!-- Node1 -->
<g id="node1" class="node"><title>Node1</title>
<polygon fill="#bfbfbf" stroke="black" points="-0.5,-0.5 -0.5,-167.5 192.5,-167.5 192.5,-0.5 -0.5,-0.5"/>
<text text-anchor="start" x="7.5" y="-155.5" font-family="Helvetica,sans-Serif" font-size="10.00">ic.populacional.algoritmo.operadores.</text>
<text text-anchor="middle" x="96" y="-144.5" font-family="Helvetica,sans-Serif" font-size="10.00">Recombinador&lt; S extends Ser &gt;</text>
<polyline fill="none" stroke="black" points="-0.5,-137.5 192.5,-137.5 "/>
<text text-anchor="start" x="7.5" y="-125.5" font-family="Helvetica,sans-Serif" font-size="10.00"># probabilidadeDeRecombinacao</text>
<text text-anchor="start" x="7.5" y="-114.5" font-family="Helvetica,sans-Serif" font-size="10.00"># gerador</text>
<polyline fill="none" stroke="black" points="-0.5,-107.5 192.5,-107.5 "/>
<text text-anchor="start" x="7.5" y="-95.5" font-family="Helvetica,sans-Serif" font-size="10.00">+ Recombinador()</text>
<text text-anchor="start" x="7.5" y="-84.5" font-family="Helvetica,sans-Serif" font-size="10.00">+ reproduz()</text>
<text text-anchor="start" x="7.5" y="-73.5" font-family="Helvetica,sans-Serif" font-size="10.00">+ reproduz()</text>
<text text-anchor="start" x="7.5" y="-62.5" font-family="Helvetica,sans-Serif" font-size="10.00">+ setProbabilidadeDeRecombinacao()</text>
<text text-anchor="start" x="7.5" y="-51.5" font-family="Helvetica,sans-Serif" font-size="10.00">+ getProbabilidadeDeRecombinacao()</text>
<text text-anchor="start" x="7.5" y="-40.5" font-family="Helvetica,sans-Serif" font-size="10.00">+ crossoverCorteETroca()</text>
<text text-anchor="start" x="7.5" y="-29.5" font-family="Helvetica,sans-Serif" font-size="10.00">+ crossoverCorteETrocaSemRepeticao()</text>
<text text-anchor="start" x="7.5" y="-18.5" font-family="Helvetica,sans-Serif" font-size="10.00">+ crossoverCorteETroca()</text>
<text text-anchor="start" x="7.5" y="-7.5" font-family="Helvetica,sans-Serif" font-size="10.00">+ crossoverRealDiscreto()</text>
</g>
<!-- Node2 -->
<g id="node2" class="node"><title>Node2</title>
<g id="a_node2"><a xlink:href="classic_1_1populacional_1_1algoritmo_1_1operadores_1_1_operador.html" target="_top" xlink:title="{ic.populacional.algoritmo.operadores.\lOperador\n||}">
<polygon fill="white" stroke="black" points="7,-205 7,-273 185,-273 185,-205 7,-205"/>
<text text-anchor="start" x="15" y="-261" font-family="Helvetica,sans-Serif" font-size="10.00">ic.populacional.algoritmo.operadores.</text>
<text text-anchor="middle" x="96" y="-250" font-family="Helvetica,sans-Serif" font-size="10.00">Operador</text>
<polyline fill="none" stroke="black" points="7,-243 185,-243 "/>
<text text-anchor="middle" x="96" y="-231" font-family="Helvetica,sans-Serif" font-size="10.00"> </text>
<polyline fill="none" stroke="black" points="7,-224 185,-224 "/>
<text text-anchor="middle" x="96" y="-212" font-family="Helvetica,sans-Serif" font-size="10.00"> </text>
</a>
</g>
</g>
<!-- Node2&#45;&gt;Node1 -->
<g id="edge1" class="edge"><title>Node2&#45;&gt;Node1</title>
<path fill="none" stroke="midnightblue" d="M96,-194.783C96,-186.261 96,-177.055 96,-167.724"/>
<polygon fill="none" stroke="midnightblue" points="92.5001,-194.801 96,-204.801 99.5001,-194.801 92.5001,-194.801"/>
</g>
</g>
</svg>
