<?xml version="1.0" encoding="UTF-8" standalone="no"?>
<!DOCTYPE svg PUBLIC "-//W3C//DTD SVG 1.1//EN"
 "http://www.w3.org/Graphics/SVG/1.1/DTD/svg11.dtd">
<!-- Generated by graphviz version 2.36.0 (20140111.2315)
 -->
<!-- Title: ic.populacional.seres.permutacao.SerPermutacao&lt; G extends Number &gt; Pages: 1 -->
<svg width="192pt" height="206pt"
 viewBox="0.00 0.00 192.00 206.00" xmlns="http://www.w3.org/2000/svg" xmlns:xlink="http://www.w3.org/1999/xlink">
<g id="graph0" class="graph" transform="scale(1 1) rotate(0) translate(4 202)">
<title>ic.populacional.seres.permutacao.SerPermutacao&lt; G extends Number &gt;</title>
<polygon fill="white" stroke="none" points="-4,4 -4,-202 188,-202 188,4 -4,4"/>
<!-- Node1 -->
<g id="node1" class="node"><title>Node1</title>
<polygon fill="#bfbfbf" stroke="black" points="0,-1 0,-91 184,-91 184,-1 0,-1"/>
<text text-anchor="start" x="8" y="-79" font-family="Helvetica,sans-Serif" font-size="10.00">ic.populacional.seres.permutacao.</text>
<text text-anchor="middle" x="92" y="-68" font-family="Helvetica,sans-Serif" font-size="10.00">SerPermutacao&lt; G extends Number &gt;</text>
<polyline fill="none" stroke="black" points="0,-61 184,-61 "/>
<text text-anchor="middle" x="92" y="-49" font-family="Helvetica,sans-Serif" font-size="10.00"> </text>
<polyline fill="none" stroke="black" points="0,-42 184,-42 "/>
<text text-anchor="start" x="8" y="-30" font-family="Helvetica,sans-Serif" font-size="10.00">+ SerPermutacao()</text>
<text text-anchor="start" x="8" y="-19" font-family="Helvetica,sans-Serif" font-size="10.00">+ SerPermutacao()</text>
<text text-anchor="start" x="8" y="-8" font-family="Helvetica,sans-Serif" font-size="10.00">+ integerListToLocusList()</text>
</g>
<!-- Node2 -->
<g id="node2" class="node"><title>Node2</title>
<polygon fill="white" stroke="#bfbfbf" points="35,-129 35,-197 149,-197 149,-129 35,-129"/>
<text text-anchor="start" x="43" y="-185" font-family="Helvetica,sans-Serif" font-size="10.00">ic::populacional::seres</text>
<text text-anchor="middle" x="92" y="-174" font-family="Helvetica,sans-Serif" font-size="10.00">::SerFixo&lt; G &gt;</text>
<polyline fill="none" stroke="#bfbfbf" points="35,-167 149,-167 "/>
<text text-anchor="middle" x="92" y="-155" font-family="Helvetica,sans-Serif" font-size="10.00"> </text>
<polyline fill="none" stroke="#bfbfbf" points="35,-148 149,-148 "/>
<text text-anchor="middle" x="92" y="-136" font-family="Helvetica,sans-Serif" font-size="10.00"> </text>
</g>
<!-- Node2&#45;&gt;Node1 -->
<g id="edge1" class="edge"><title>Node2&#45;&gt;Node1</title>
<path fill="none" stroke="midnightblue" d="M92,-118.555C92,-109.646 92,-100.257 92,-91.3181"/>
<polygon fill="none" stroke="midnightblue" points="88.5001,-118.737 92,-128.737 95.5001,-118.737 88.5001,-118.737"/>
</g>
</g>
</svg>
