<?xml version="1.0" encoding="UTF-8" standalone="no"?>
<!DOCTYPE svg PUBLIC "-//W3C//DTD SVG 1.1//EN"
 "http://www.w3.org/Graphics/SVG/1.1/DTD/svg11.dtd">
<!-- Generated by graphviz version 2.36.0 (20140111.2315)
 -->
<!-- Title: ic.populacional.algoritmo.AlgoritmoEvolucionario&lt; G extends Number, S extends Ser&lt; G &gt; &gt; Pages: 1 -->
<svg width="638pt" height="536pt"
 viewBox="0.00 0.00 638.00 536.00" xmlns="http://www.w3.org/2000/svg" xmlns:xlink="http://www.w3.org/1999/xlink">
<g id="graph0" class="graph" transform="scale(1 1) rotate(0) translate(4 532)">
<title>ic.populacional.algoritmo.AlgoritmoEvolucionario&lt; G extends Number, S extends Ser&lt; G &gt; &gt;</title>
<polygon fill="white" stroke="none" points="-4,4 -4,-532 634,-532 634,4 -4,4"/>
<!-- Node1 -->
<g id="node1" class="node"><title>Node1</title>
<polygon fill="#bfbfbf" stroke="black" points="264,-1 264,-421 422,-421 422,-1 264,-1"/>
<text text-anchor="start" x="272" y="-409" font-family="Helvetica,sans-Serif" font-size="10.00">ic.populacional.algoritmo.</text>
<text text-anchor="start" x="272" y="-398" font-family="Helvetica,sans-Serif" font-size="10.00">AlgoritmoEvolucionario</text>
<text text-anchor="start" x="272" y="-387" font-family="Helvetica,sans-Serif" font-size="10.00">&lt; G extends Number, S extends</text>
<text text-anchor="middle" x="343" y="-376" font-family="Helvetica,sans-Serif" font-size="10.00"> Ser&lt; G &gt; &gt;</text>
<polyline fill="none" stroke="black" points="264,-369 422,-369 "/>
<text text-anchor="start" x="272" y="-357" font-family="Helvetica,sans-Serif" font-size="10.00"># nome</text>
<text text-anchor="start" x="272" y="-346" font-family="Helvetica,sans-Serif" font-size="10.00"># tempoDeExecucao</text>
<text text-anchor="start" x="272" y="-335" font-family="Helvetica,sans-Serif" font-size="10.00"># contadorDeIteracoes</text>
<text text-anchor="start" x="272" y="-324" font-family="Helvetica,sans-Serif" font-size="10.00"># contadorSemMelhoras</text>
<text text-anchor="start" x="272" y="-313" font-family="Helvetica,sans-Serif" font-size="10.00">&#45; melhorSer</text>
<polyline fill="none" stroke="black" points="264,-306 422,-306 "/>
<text text-anchor="start" x="272" y="-294" font-family="Helvetica,sans-Serif" font-size="10.00">+ AlgoritmoEvolucionario()</text>
<text text-anchor="start" x="272" y="-283" font-family="Helvetica,sans-Serif" font-size="10.00">+ AlgoritmoEvolucionario()</text>
<text text-anchor="start" x="272" y="-272" font-family="Helvetica,sans-Serif" font-size="10.00">+ iteracao()</text>
<text text-anchor="start" x="272" y="-261" font-family="Helvetica,sans-Serif" font-size="10.00">+ terminou()</text>
<text text-anchor="start" x="272" y="-250" font-family="Helvetica,sans-Serif" font-size="10.00">+ executa()</text>
<text text-anchor="start" x="272" y="-239" font-family="Helvetica,sans-Serif" font-size="10.00">+ getTempoDeExecucaoNano()</text>
<text text-anchor="start" x="272" y="-228" font-family="Helvetica,sans-Serif" font-size="10.00">+ getTempoDeExecucaoSeg()</text>
<text text-anchor="start" x="272" y="-217" font-family="Helvetica,sans-Serif" font-size="10.00">+ getMelhorSer()</text>
<text text-anchor="start" x="272" y="-206" font-family="Helvetica,sans-Serif" font-size="10.00">+ getContadorDeIteracoes()</text>
<text text-anchor="start" x="272" y="-195" font-family="Helvetica,sans-Serif" font-size="10.00">+ getContadorSemMelhoras()</text>
<text text-anchor="start" x="272" y="-184" font-family="Helvetica,sans-Serif" font-size="10.00">+ getGerador()</text>
<text text-anchor="start" x="272" y="-173" font-family="Helvetica,sans-Serif" font-size="10.00">+ setGerador()</text>
<text text-anchor="start" x="272" y="-162" font-family="Helvetica,sans-Serif" font-size="10.00">+ getMutador()</text>
<text text-anchor="start" x="272" y="-151" font-family="Helvetica,sans-Serif" font-size="10.00">+ setMutador()</text>
<text text-anchor="start" x="272" y="-140" font-family="Helvetica,sans-Serif" font-size="10.00">+ getRecombinador()</text>
<text text-anchor="start" x="272" y="-129" font-family="Helvetica,sans-Serif" font-size="10.00">+ setRecombinador()</text>
<text text-anchor="start" x="272" y="-118" font-family="Helvetica,sans-Serif" font-size="10.00">+ getSeletor()</text>
<text text-anchor="start" x="272" y="-107" font-family="Helvetica,sans-Serif" font-size="10.00">+ setSeletor()</text>
<text text-anchor="start" x="272" y="-96" font-family="Helvetica,sans-Serif" font-size="10.00">+ getAmbiente()</text>
<text text-anchor="start" x="272" y="-85" font-family="Helvetica,sans-Serif" font-size="10.00">+ setAmbiente()</text>
<text text-anchor="start" x="272" y="-74" font-family="Helvetica,sans-Serif" font-size="10.00">+ switchAmbiente()</text>
<text text-anchor="start" x="272" y="-63" font-family="Helvetica,sans-Serif" font-size="10.00">+ getPopulacao()</text>
<text text-anchor="start" x="272" y="-52" font-family="Helvetica,sans-Serif" font-size="10.00">+ setPopulacao()</text>
<text text-anchor="start" x="272" y="-41" font-family="Helvetica,sans-Serif" font-size="10.00">+ switchPopulacao()</text>
<text text-anchor="start" x="272" y="-30" font-family="Helvetica,sans-Serif" font-size="10.00">+ relatorio()</text>
<text text-anchor="start" x="272" y="-19" font-family="Helvetica,sans-Serif" font-size="10.00">~ finaliza()</text>
<text text-anchor="start" x="272" y="-8" font-family="Helvetica,sans-Serif" font-size="10.00"># verificacaoInicial()</text>
</g>
<!-- Node2 -->
<g id="node2" class="node"><title>Node2</title>
<polygon fill="white" stroke="#bfbfbf" points="-0.5,-470.5 -0.5,-527.5 100.5,-527.5 100.5,-470.5 -0.5,-470.5"/>
<text text-anchor="middle" x="50" y="-515.5" font-family="Helvetica,sans-Serif" font-size="10.00">Populacao&lt; G, S &gt;</text>
<polyline fill="none" stroke="#bfbfbf" points="-0.5,-508.5 100.5,-508.5 "/>
<text text-anchor="middle" x="50" y="-496.5" font-family="Helvetica,sans-Serif" font-size="10.00"> </text>
<polyline fill="none" stroke="#bfbfbf" points="-0.5,-489.5 100.5,-489.5 "/>
<text text-anchor="middle" x="50" y="-477.5" font-family="Helvetica,sans-Serif" font-size="10.00"> </text>
</g>
<!-- Node2&#45;&gt;Node1 -->
<g id="edge1" class="edge"><title>Node2&#45;&gt;Node1</title>
<path fill="none" stroke="#404040" d="M78.3603,-470.317C118.81,-430.834 194.838,-356.622 255.062,-297.837"/>
<polygon fill="none" stroke="#404040" points="255.239,-297.664 256.739,-290.611 263.827,-289.282 262.327,-296.335 255.239,-297.664"/>
<text text-anchor="middle" x="133.5" y="-443.5" font-family="Helvetica,sans-Serif" font-size="10.00"> #populacao</text>
</g>
<!-- Node3 -->
<g id="node3" class="node"><title>Node3</title>
<polygon fill="white" stroke="#bfbfbf" points="119,-470.5 119,-527.5 223,-527.5 223,-470.5 119,-470.5"/>
<text text-anchor="middle" x="171" y="-515.5" font-family="Helvetica,sans-Serif" font-size="10.00">Recombinador&lt; S &gt;</text>
<polyline fill="none" stroke="#bfbfbf" points="119,-508.5 223,-508.5 "/>
<text text-anchor="middle" x="171" y="-496.5" font-family="Helvetica,sans-Serif" font-size="10.00"> </text>
<polyline fill="none" stroke="#bfbfbf" points="119,-489.5 223,-489.5 "/>
<text text-anchor="middle" x="171" y="-477.5" font-family="Helvetica,sans-Serif" font-size="10.00"> </text>
</g>
<!-- Node3&#45;&gt;Node1 -->
<g id="edge2" class="edge"><title>Node3&#45;&gt;Node1</title>
<path fill="none" stroke="#404040" d="M187.648,-470.317C204.23,-442.746 230.996,-398.238 257.676,-353.876"/>
<polygon fill="none" stroke="#404040" points="257.72,-353.803 257.384,-346.6 263.904,-343.519 264.24,-350.723 257.72,-353.803"/>
<text text-anchor="middle" x="237.5" y="-443.5" font-family="Helvetica,sans-Serif" font-size="10.00"> #recombinador</text>
</g>
<!-- Node4 -->
<g id="node4" class="node"><title>Node4</title>
<polygon fill="white" stroke="#bfbfbf" points="241,-470.5 241,-527.5 337,-527.5 337,-470.5 241,-470.5"/>
<text text-anchor="middle" x="289" y="-515.5" font-family="Helvetica,sans-Serif" font-size="10.00">Ambiente&lt; G, S &gt;</text>
<polyline fill="none" stroke="#bfbfbf" points="241,-508.5 337,-508.5 "/>
<text text-anchor="middle" x="289" y="-496.5" font-family="Helvetica,sans-Serif" font-size="10.00"> </text>
<polyline fill="none" stroke="#bfbfbf" points="241,-489.5 337,-489.5 "/>
<text text-anchor="middle" x="289" y="-477.5" font-family="Helvetica,sans-Serif" font-size="10.00"> </text>
</g>
<!-- Node4&#45;&gt;Node1 -->
<g id="edge3" class="edge"><title>Node4&#45;&gt;Node1</title>
<path fill="none" stroke="#404040" d="M294.227,-470.317C296.171,-460.022 298.56,-447.366 301.228,-433.238"/>
<polygon fill="none" stroke="#404040" points="301.304,-432.836 298.486,-426.198 303.53,-421.044 306.347,-427.682 301.304,-432.836"/>
<text text-anchor="middle" x="324.5" y="-443.5" font-family="Helvetica,sans-Serif" font-size="10.00"> #ambiente</text>
</g>
<!-- Node5 -->
<g id="node5" class="node"><title>Node5</title>
<polygon fill="white" stroke="#bfbfbf" points="355,-470.5 355,-527.5 441,-527.5 441,-470.5 355,-470.5"/>
<text text-anchor="middle" x="398" y="-515.5" font-family="Helvetica,sans-Serif" font-size="10.00">Seletor&lt; G, S &gt;</text>
<polyline fill="none" stroke="#bfbfbf" points="355,-508.5 441,-508.5 "/>
<text text-anchor="middle" x="398" y="-496.5" font-family="Helvetica,sans-Serif" font-size="10.00"> </text>
<polyline fill="none" stroke="#bfbfbf" points="355,-489.5 441,-489.5 "/>
<text text-anchor="middle" x="398" y="-477.5" font-family="Helvetica,sans-Serif" font-size="10.00"> </text>
</g>
<!-- Node5&#45;&gt;Node1 -->
<g id="edge4" class="edge"><title>Node5&#45;&gt;Node1</title>
<path fill="none" stroke="#404040" d="M392.676,-470.317C390.697,-460.022 388.263,-447.366 385.546,-433.238"/>
<polygon fill="none" stroke="#404040" points="385.467,-432.828 380.406,-427.692 383.201,-421.044 388.262,-426.181 385.467,-432.828"/>
<text text-anchor="middle" x="408" y="-443.5" font-family="Helvetica,sans-Serif" font-size="10.00"> #seletor</text>
</g>
<!-- Node6 -->
<g id="node6" class="node"><title>Node6</title>
<polygon fill="white" stroke="#bfbfbf" points="459,-470.5 459,-527.5 535,-527.5 535,-470.5 459,-470.5"/>
<text text-anchor="middle" x="497" y="-515.5" font-family="Helvetica,sans-Serif" font-size="10.00">Gerador&lt; S &gt;</text>
<polyline fill="none" stroke="#bfbfbf" points="459,-508.5 535,-508.5 "/>
<text text-anchor="middle" x="497" y="-496.5" font-family="Helvetica,sans-Serif" font-size="10.00"> </text>
<polyline fill="none" stroke="#bfbfbf" points="459,-489.5 535,-489.5 "/>
<text text-anchor="middle" x="497" y="-477.5" font-family="Helvetica,sans-Serif" font-size="10.00"> </text>
</g>
<!-- Node6&#45;&gt;Node1 -->
<g id="edge5" class="edge"><title>Node6&#45;&gt;Node1</title>
<path fill="none" stroke="#404040" d="M482.094,-470.317C469.019,-446.035 448.871,-408.617 427.932,-369.731"/>
<polygon fill="none" stroke="#404040" points="427.7,-369.299 421.333,-365.913 422.01,-358.734 428.377,-362.12 427.7,-369.299"/>
<text text-anchor="middle" x="492.5" y="-443.5" font-family="Helvetica,sans-Serif" font-size="10.00"> #gerador</text>
</g>
<!-- Node7 -->
<g id="node7" class="node"><title>Node7</title>
<polygon fill="white" stroke="#bfbfbf" points="553.5,-470.5 553.5,-527.5 630.5,-527.5 630.5,-470.5 553.5,-470.5"/>
<text text-anchor="middle" x="592" y="-515.5" font-family="Helvetica,sans-Serif" font-size="10.00">Mutador&lt; S &gt;</text>
<polyline fill="none" stroke="#bfbfbf" points="553.5,-508.5 630.5,-508.5 "/>
<text text-anchor="middle" x="592" y="-496.5" font-family="Helvetica,sans-Serif" font-size="10.00"> </text>
<polyline fill="none" stroke="#bfbfbf" points="553.5,-489.5 630.5,-489.5 "/>
<text text-anchor="middle" x="592" y="-477.5" font-family="Helvetica,sans-Serif" font-size="10.00"> </text>
</g>
<!-- Node7&#45;&gt;Node1 -->
<g id="edge6" class="edge"><title>Node7&#45;&gt;Node1</title>
<path fill="none" stroke="#404040" d="M567.899,-470.317C536.278,-433.998 479.074,-368.294 430.273,-312.242"/>
<polygon fill="none" stroke="#404040" points="430.087,-312.027 423.13,-310.129 422.207,-302.977 429.164,-304.876 430.087,-312.027"/>
<text text-anchor="middle" x="573" y="-443.5" font-family="Helvetica,sans-Serif" font-size="10.00"> #mutador</text>
</g>
</g>
</svg>
