<?xml version="1.0" encoding="UTF-8" standalone="no"?>
<!DOCTYPE svg PUBLIC "-//W3C//DTD SVG 1.1//EN"
 "http://www.w3.org/Graphics/SVG/1.1/DTD/svg11.dtd">
<!-- Generated by graphviz version 2.36.0 (20140111.2315)
 -->
<!-- Title: ic.populacional.utilidades.Aleatorios.permutacao Pages: 1 -->
<svg width="342pt" height="38pt"
 viewBox="0.00 0.00 342.00 38.00" xmlns="http://www.w3.org/2000/svg" xmlns:xlink="http://www.w3.org/1999/xlink">
<g id="graph0" class="graph" transform="scale(1 1) rotate(0) translate(4 34)">
<title>ic.populacional.utilidades.Aleatorios.permutacao</title>
<polygon fill="white" stroke="none" points="-4,4 -4,-34 338,-34 338,4 -4,4"/>
<!-- Node1 -->
<g id="node1" class="node"><title>Node1</title>
<polygon fill="#bfbfbf" stroke="black" points="0,-0 0,-30 128,-30 128,-0 0,-0"/>
<text text-anchor="start" x="8" y="-18" font-family="Helvetica,sans-Serif" font-size="10.00">ic.populacional.utilidades.</text>
<text text-anchor="middle" x="64" y="-7" font-family="Helvetica,sans-Serif" font-size="10.00">Aleatorios.permutacao</text>
</g>
<!-- Node2 -->
<g id="node2" class="node"><title>Node2</title>
<g id="a_node2"><a xlink:href="classic_1_1populacional_1_1seres_1_1permutacao_1_1_gerador_permutacoes.html#a254e528926ffe7b14dda3eb784961355" target="_top" xlink:title="ic.populacional.seres.permutacao.\lGeradorPermutacoes.geraAleatorio">
<polygon fill="white" stroke="black" points="164.5,-0 164.5,-30 333.5,-30 333.5,-0 164.5,-0"/>
<text text-anchor="start" x="172.5" y="-18" font-family="Helvetica,sans-Serif" font-size="10.00">ic.populacional.seres.permutacao.</text>
<text text-anchor="middle" x="249" y="-7" font-family="Helvetica,sans-Serif" font-size="10.00">GeradorPermutacoes.geraAleatorio</text>
</a>
</g>
</g>
<!-- Node1&#45;&gt;Node2 -->
<g id="edge1" class="edge"><title>Node1&#45;&gt;Node2</title>
<path fill="none" stroke="midnightblue" d="M138.508,-15C147.036,-15 155.78,-15 164.43,-15"/>
<polygon fill="midnightblue" stroke="midnightblue" points="138.235,-11.5001 128.234,-15 138.234,-18.5001 138.235,-11.5001"/>
</g>
</g>
</svg>
