<?xml version="1.0" encoding="UTF-8" standalone="no"?>
<!DOCTYPE svg PUBLIC "-//W3C//DTD SVG 1.1//EN"
 "http://www.w3.org/Graphics/SVG/1.1/DTD/svg11.dtd">
<!-- Generated by graphviz version 2.36.0 (20140111.2315)
 -->
<!-- Title: ic.populacional.CaracteristicaBinaria Pages: 1 -->
<svg width="160pt" height="364pt"
 viewBox="0.00 0.00 160.00 364.00" xmlns="http://www.w3.org/2000/svg" xmlns:xlink="http://www.w3.org/1999/xlink">
<g id="graph0" class="graph" transform="scale(1 1) rotate(0) translate(4 360)">
<title>ic.populacional.CaracteristicaBinaria</title>
<polygon fill="white" stroke="none" points="-4,4 -4,-360 156,-360 156,4 -4,4"/>
<!-- Node1 -->
<g id="node1" class="node"><title>Node1</title>
<polygon fill="#bfbfbf" stroke="black" points="0,-0.5 0,-123.5 152,-123.5 152,-0.5 0,-0.5"/>
<text text-anchor="start" x="8" y="-111.5" font-family="Helvetica,sans-Serif" font-size="10.00">ic.populacional.Caracteristica</text>
<text text-anchor="middle" x="76" y="-100.5" font-family="Helvetica,sans-Serif" font-size="10.00">Binaria</text>
<polyline fill="none" stroke="black" points="0,-93.5 152,-93.5 "/>
<text text-anchor="start" x="8" y="-81.5" font-family="Helvetica,sans-Serif" font-size="10.00">&#45; set</text>
<polyline fill="none" stroke="black" points="0,-74.5 152,-74.5 "/>
<text text-anchor="start" x="8" y="-62.5" font-family="Helvetica,sans-Serif" font-size="10.00">+ CaracteristicaBinaria()</text>
<text text-anchor="start" x="8" y="-51.5" font-family="Helvetica,sans-Serif" font-size="10.00">+ CaracteristicaBinaria()</text>
<text text-anchor="start" x="8" y="-40.5" font-family="Helvetica,sans-Serif" font-size="10.00">+ getRepresentacaoNumerica()</text>
<text text-anchor="start" x="8" y="-29.5" font-family="Helvetica,sans-Serif" font-size="10.00">+ getBit()</text>
<text text-anchor="start" x="8" y="-18.5" font-family="Helvetica,sans-Serif" font-size="10.00">+ setBit()</text>
<text text-anchor="start" x="8" y="-7.5" font-family="Helvetica,sans-Serif" font-size="10.00">+ setRepresentacaoNumerica()</text>
</g>
<!-- Node2 -->
<g id="node2" class="node"><title>Node2</title>
<g id="a_node2"><a xlink:href="classic_1_1populacional_1_1_caracteristica.html" target="_top" xlink:title="{ic.populacional.Caracteristica\n||+ getRepresentacaoNumerica()\l+ setRepresentacaoNumerica()\l+ copia()\l+ equals()\l+ toString()\l}">
<polygon fill="white" stroke="black" points="0,-160.5 0,-261.5 152,-261.5 152,-160.5 0,-160.5"/>
<text text-anchor="middle" x="76" y="-249.5" font-family="Helvetica,sans-Serif" font-size="10.00">ic.populacional.Caracteristica</text>
<polyline fill="none" stroke="black" points="0,-242.5 152,-242.5 "/>
<text text-anchor="middle" x="76" y="-230.5" font-family="Helvetica,sans-Serif" font-size="10.00"> </text>
<polyline fill="none" stroke="black" points="0,-223.5 152,-223.5 "/>
<text text-anchor="start" x="8" y="-211.5" font-family="Helvetica,sans-Serif" font-size="10.00">+ getRepresentacaoNumerica()</text>
<text text-anchor="start" x="8" y="-200.5" font-family="Helvetica,sans-Serif" font-size="10.00">+ setRepresentacaoNumerica()</text>
<text text-anchor="start" x="8" y="-189.5" font-family="Helvetica,sans-Serif" font-size="10.00">+ copia()</text>
<text text-anchor="start" x="8" y="-178.5" font-family="Helvetica,sans-Serif" font-size="10.00">+ equals()</text>
<text text-anchor="start" x="8" y="-167.5" font-family="Helvetica,sans-Serif" font-size="10.00">+ toString()</text>
</a>
</g>
</g>
<!-- Node2&#45;&gt;Node1 -->
<g id="edge1" class="edge"><title>Node2&#45;&gt;Node1</title>
<path fill="none" stroke="midnightblue" d="M76,-150.139C76,-141.411 76,-132.417 76,-123.672"/>
<polygon fill="none" stroke="midnightblue" points="72.5001,-150.232 76,-160.233 79.5001,-150.233 72.5001,-150.232"/>
</g>
<!-- Node3 -->
<g id="node3" class="node"><title>Node3</title>
<polygon fill="white" stroke="#bfbfbf" points="18.5,-298.5 18.5,-355.5 133.5,-355.5 133.5,-298.5 18.5,-298.5"/>
<text text-anchor="middle" x="76" y="-343.5" font-family="Helvetica,sans-Serif" font-size="10.00">Comparable&lt; Object &gt;</text>
<polyline fill="none" stroke="#bfbfbf" points="18.5,-336.5 133.5,-336.5 "/>
<text text-anchor="middle" x="76" y="-324.5" font-family="Helvetica,sans-Serif" font-size="10.00"> </text>
<polyline fill="none" stroke="#bfbfbf" points="18.5,-317.5 133.5,-317.5 "/>
<text text-anchor="middle" x="76" y="-305.5" font-family="Helvetica,sans-Serif" font-size="10.00"> </text>
</g>
<!-- Node3&#45;&gt;Node2 -->
<g id="edge2" class="edge"><title>Node3&#45;&gt;Node2</title>
<path fill="none" stroke="midnightblue" d="M76,-288.354C76,-279.796 76,-270.578 76,-261.608"/>
<polygon fill="none" stroke="midnightblue" points="72.5001,-288.404 76,-298.404 79.5001,-288.404 72.5001,-288.404"/>
</g>
</g>
</svg>
