<?xml version="1.0" encoding="UTF-8" standalone="no"?>
<!DOCTYPE svg PUBLIC "-//W3C//DTD SVG 1.1//EN"
 "http://www.w3.org/Graphics/SVG/1.1/DTD/svg11.dtd">
<!-- Generated by graphviz version 2.36.0 (20140111.2315)
 -->
<!-- Title: ic.populacional.algoritmo.operadores.Gerador&lt; T extends Ser &gt; Pages: 1 -->
<svg width="186pt" height="216pt"
 viewBox="0.00 0.00 186.00 216.00" xmlns="http://www.w3.org/2000/svg" xmlns:xlink="http://www.w3.org/1999/xlink">
<g id="graph0" class="graph" transform="scale(1 1) rotate(0) translate(4 212)">
<title>ic.populacional.algoritmo.operadores.Gerador&lt; T extends Ser &gt;</title>
<polygon fill="white" stroke="none" points="-4,4 -4,-212 182,-212 182,4 -4,4"/>
<!-- Node1 -->
<g id="node1" class="node"><title>Node1</title>
<polygon fill="#bfbfbf" stroke="black" points="0,-0.5 0,-101.5 178,-101.5 178,-0.5 0,-0.5"/>
<text text-anchor="start" x="8" y="-89.5" font-family="Helvetica,sans-Serif" font-size="10.00">ic.populacional.algoritmo.operadores.</text>
<text text-anchor="middle" x="89" y="-78.5" font-family="Helvetica,sans-Serif" font-size="10.00">Gerador&lt; T extends Ser &gt;</text>
<polyline fill="none" stroke="black" points="0,-71.5 178,-71.5 "/>
<text text-anchor="middle" x="89" y="-59.5" font-family="Helvetica,sans-Serif" font-size="10.00"> </text>
<polyline fill="none" stroke="black" points="0,-52.5 178,-52.5 "/>
<text text-anchor="start" x="8" y="-40.5" font-family="Helvetica,sans-Serif" font-size="10.00">+ geraAleatorio()</text>
<text text-anchor="start" x="8" y="-29.5" font-family="Helvetica,sans-Serif" font-size="10.00">+ gera()</text>
<text text-anchor="start" x="8" y="-18.5" font-family="Helvetica,sans-Serif" font-size="10.00">+ geraN()</text>
<text text-anchor="start" x="8" y="-7.5" font-family="Helvetica,sans-Serif" font-size="10.00">+ geraNAleatorios()</text>
</g>
<!-- Node2 -->
<g id="node2" class="node"><title>Node2</title>
<g id="a_node2"><a xlink:href="classic_1_1populacional_1_1algoritmo_1_1operadores_1_1_operador.html" target="_top" xlink:title="{ic.populacional.algoritmo.operadores.\lOperador\n||}">
<polygon fill="white" stroke="black" points="0,-139 0,-207 178,-207 178,-139 0,-139"/>
<text text-anchor="start" x="8" y="-195" font-family="Helvetica,sans-Serif" font-size="10.00">ic.populacional.algoritmo.operadores.</text>
<text text-anchor="middle" x="89" y="-184" font-family="Helvetica,sans-Serif" font-size="10.00">Operador</text>
<polyline fill="none" stroke="black" points="0,-177 178,-177 "/>
<text text-anchor="middle" x="89" y="-165" font-family="Helvetica,sans-Serif" font-size="10.00"> </text>
<polyline fill="none" stroke="black" points="0,-158 178,-158 "/>
<text text-anchor="middle" x="89" y="-146" font-family="Helvetica,sans-Serif" font-size="10.00"> </text>
</a>
</g>
</g>
<!-- Node2&#45;&gt;Node1 -->
<g id="edge1" class="edge"><title>Node2&#45;&gt;Node1</title>
<path fill="none" stroke="midnightblue" d="M89,-128.831C89,-120.01 89,-110.661 89,-101.636"/>
<polygon fill="none" stroke="midnightblue" points="85.5001,-128.892 89,-138.892 92.5001,-128.892 85.5001,-128.892"/>
</g>
</g>
</svg>
