<?xml version="1.0" encoding="UTF-8" standalone="no"?>
<!DOCTYPE svg PUBLIC "-//W3C//DTD SVG 1.1//EN"
 "http://www.w3.org/Graphics/SVG/1.1/DTD/svg11.dtd">
<!-- Generated by graphviz version 2.36.0 (20140111.2315)
 -->
<!-- Title: ic.populacional.algoritmo.operadores.Operador Pages: 1 -->
<svg width="790pt" height="294pt"
 viewBox="0.00 0.00 790.00 294.00" xmlns="http://www.w3.org/2000/svg" xmlns:xlink="http://www.w3.org/1999/xlink">
<g id="graph0" class="graph" transform="scale(1 1) rotate(0) translate(4 290)">
<title>ic.populacional.algoritmo.operadores.Operador</title>
<polygon fill="white" stroke="none" points="-4,4 -4,-290 786,-290 786,4 -4,4"/>
<!-- Node1 -->
<g id="node1" class="node"><title>Node1</title>
<polygon fill="#bfbfbf" stroke="black" points="298,-217 298,-285 476,-285 476,-217 298,-217"/>
<text text-anchor="start" x="306" y="-273" font-family="Helvetica,sans-Serif" font-size="10.00">ic.populacional.algoritmo.operadores.</text>
<text text-anchor="middle" x="387" y="-262" font-family="Helvetica,sans-Serif" font-size="10.00">Operador</text>
<polyline fill="none" stroke="black" points="298,-255 476,-255 "/>
<text text-anchor="middle" x="387" y="-243" font-family="Helvetica,sans-Serif" font-size="10.00"> </text>
<polyline fill="none" stroke="black" points="298,-236 476,-236 "/>
<text text-anchor="middle" x="387" y="-224" font-family="Helvetica,sans-Serif" font-size="10.00"> </text>
</g>
<!-- Node2 -->
<g id="node2" class="node"><title>Node2</title>
<g id="a_node2"><a xlink:href="classic_1_1populacional_1_1algoritmo_1_1operadores_1_1_gerador_3_01_t_01extends_01_ser_01_4.html" target="_top" xlink:title="{ic.populacional.algoritmo.operadores.\lGerador\&lt; T extends Ser \&gt;\n||+ geraAleatorio()\l+ gera()\l+ geraN()\l+ geraNAleatorios()\l}">
<polygon fill="white" stroke="black" points="0,-39.5 0,-140.5 178,-140.5 178,-39.5 0,-39.5"/>
<text text-anchor="start" x="8" y="-128.5" font-family="Helvetica,sans-Serif" font-size="10.00">ic.populacional.algoritmo.operadores.</text>
<text text-anchor="middle" x="89" y="-117.5" font-family="Helvetica,sans-Serif" font-size="10.00">Gerador&lt; T extends Ser &gt;</text>
<polyline fill="none" stroke="black" points="0,-110.5 178,-110.5 "/>
<text text-anchor="middle" x="89" y="-98.5" font-family="Helvetica,sans-Serif" font-size="10.00"> </text>
<polyline fill="none" stroke="black" points="0,-91.5 178,-91.5 "/>
<text text-anchor="start" x="8" y="-79.5" font-family="Helvetica,sans-Serif" font-size="10.00">+ geraAleatorio()</text>
<text text-anchor="start" x="8" y="-68.5" font-family="Helvetica,sans-Serif" font-size="10.00">+ gera()</text>
<text text-anchor="start" x="8" y="-57.5" font-family="Helvetica,sans-Serif" font-size="10.00">+ geraN()</text>
<text text-anchor="start" x="8" y="-46.5" font-family="Helvetica,sans-Serif" font-size="10.00">+ geraNAleatorios()</text>
</a>
</g>
</g>
<!-- Node1&#45;&gt;Node2 -->
<g id="edge1" class="edge"><title>Node1&#45;&gt;Node2</title>
<path fill="none" stroke="midnightblue" d="M288.19,-224.095C254.769,-213.111 218.071,-198.498 187,-180 168.93,-169.242 151.258,-154.805 136.008,-140.693"/>
<polygon fill="none" stroke="midnightblue" points="287.392,-227.515 297.983,-227.242 289.534,-220.851 287.392,-227.515"/>
</g>
<!-- Node3 -->
<g id="node3" class="node"><title>Node3</title>
<g id="a_node3"><a xlink:href="classic_1_1populacional_1_1algoritmo_1_1operadores_1_1_mutador_3_01_t_01extends_01_ser_01_4.html" target="_top" xlink:title="{ic.populacional.algoritmo.operadores.\lMutador\&lt; T extends Ser \&gt;\n|# probabilidadeDeMutacao\l|+ Mutador()\l+ muta()\l+ muta()\l+ sorteiaSeMuta()\l+ getProbabilidadeMutacao()\l+ troca2Aleatorios()\l+ bitFlipping()\l+ flip()\l+ troca()\l+ mutacaoUniforme()\l&#45; setProbabilidadeMutacao()\l}">
<polygon fill="white" stroke="black" points="196,-1 196,-179 374,-179 374,-1 196,-1"/>
<text text-anchor="start" x="204" y="-167" font-family="Helvetica,sans-Serif" font-size="10.00">ic.populacional.algoritmo.operadores.</text>
<text text-anchor="middle" x="285" y="-156" font-family="Helvetica,sans-Serif" font-size="10.00">Mutador&lt; T extends Ser &gt;</text>
<polyline fill="none" stroke="black" points="196,-149 374,-149 "/>
<text text-anchor="start" x="204" y="-137" font-family="Helvetica,sans-Serif" font-size="10.00"># probabilidadeDeMutacao</text>
<polyline fill="none" stroke="black" points="196,-130 374,-130 "/>
<text text-anchor="start" x="204" y="-118" font-family="Helvetica,sans-Serif" font-size="10.00">+ Mutador()</text>
<text text-anchor="start" x="204" y="-107" font-family="Helvetica,sans-Serif" font-size="10.00">+ muta()</text>
<text text-anchor="start" x="204" y="-96" font-family="Helvetica,sans-Serif" font-size="10.00">+ muta()</text>
<text text-anchor="start" x="204" y="-85" font-family="Helvetica,sans-Serif" font-size="10.00">+ sorteiaSeMuta()</text>
<text text-anchor="start" x="204" y="-74" font-family="Helvetica,sans-Serif" font-size="10.00">+ getProbabilidadeMutacao()</text>
<text text-anchor="start" x="204" y="-63" font-family="Helvetica,sans-Serif" font-size="10.00">+ troca2Aleatorios()</text>
<text text-anchor="start" x="204" y="-52" font-family="Helvetica,sans-Serif" font-size="10.00">+ bitFlipping()</text>
<text text-anchor="start" x="204" y="-41" font-family="Helvetica,sans-Serif" font-size="10.00">+ flip()</text>
<text text-anchor="start" x="204" y="-30" font-family="Helvetica,sans-Serif" font-size="10.00">+ troca()</text>
<text text-anchor="start" x="204" y="-19" font-family="Helvetica,sans-Serif" font-size="10.00">+ mutacaoUniforme()</text>
<text text-anchor="start" x="204" y="-8" font-family="Helvetica,sans-Serif" font-size="10.00">&#45; setProbabilidadeMutacao()</text>
</a>
</g>
</g>
<!-- Node1&#45;&gt;Node3 -->
<g id="edge2" class="edge"><title>Node1&#45;&gt;Node3</title>
<path fill="none" stroke="midnightblue" d="M360.066,-208.015C354.323,-199.063 348.052,-189.288 341.662,-179.325"/>
<polygon fill="none" stroke="midnightblue" points="357.272,-210.141 365.617,-216.668 363.164,-206.362 357.272,-210.141"/>
</g>
<!-- Node4 -->
<g id="node4" class="node"><title>Node4</title>
<g id="a_node4"><a xlink:href="classic_1_1populacional_1_1algoritmo_1_1operadores_1_1_recombinador_3_01_s_01extends_01_ser_01_4.html" target="_top" xlink:title="Operador de recombinação. ">
<polygon fill="white" stroke="black" points="392.5,-6.5 392.5,-173.5 585.5,-173.5 585.5,-6.5 392.5,-6.5"/>
<text text-anchor="start" x="400.5" y="-161.5" font-family="Helvetica,sans-Serif" font-size="10.00">ic.populacional.algoritmo.operadores.</text>
<text text-anchor="middle" x="489" y="-150.5" font-family="Helvetica,sans-Serif" font-size="10.00">Recombinador&lt; S extends Ser &gt;</text>
<polyline fill="none" stroke="black" points="392.5,-143.5 585.5,-143.5 "/>
<text text-anchor="start" x="400.5" y="-131.5" font-family="Helvetica,sans-Serif" font-size="10.00"># probabilidadeDeRecombinacao</text>
<text text-anchor="start" x="400.5" y="-120.5" font-family="Helvetica,sans-Serif" font-size="10.00"># gerador</text>
<polyline fill="none" stroke="black" points="392.5,-113.5 585.5,-113.5 "/>
<text text-anchor="start" x="400.5" y="-101.5" font-family="Helvetica,sans-Serif" font-size="10.00">+ Recombinador()</text>
<text text-anchor="start" x="400.5" y="-90.5" font-family="Helvetica,sans-Serif" font-size="10.00">+ reproduz()</text>
<text text-anchor="start" x="400.5" y="-79.5" font-family="Helvetica,sans-Serif" font-size="10.00">+ reproduz()</text>
<text text-anchor="start" x="400.5" y="-68.5" font-family="Helvetica,sans-Serif" font-size="10.00">+ setProbabilidadeDeRecombinacao()</text>
<text text-anchor="start" x="400.5" y="-57.5" font-family="Helvetica,sans-Serif" font-size="10.00">+ getProbabilidadeDeRecombinacao()</text>
<text text-anchor="start" x="400.5" y="-46.5" font-family="Helvetica,sans-Serif" font-size="10.00">+ crossoverCorteETroca()</text>
<text text-anchor="start" x="400.5" y="-35.5" font-family="Helvetica,sans-Serif" font-size="10.00">+ crossoverCorteETrocaSemRepeticao()</text>
<text text-anchor="start" x="400.5" y="-24.5" font-family="Helvetica,sans-Serif" font-size="10.00">+ crossoverCorteETroca()</text>
<text text-anchor="start" x="400.5" y="-13.5" font-family="Helvetica,sans-Serif" font-size="10.00">+ crossoverRealDiscreto()</text>
</a>
</g>
</g>
<!-- Node1&#45;&gt;Node4 -->
<g id="edge3" class="edge"><title>Node1&#45;&gt;Node4</title>
<path fill="none" stroke="midnightblue" d="M413.916,-208.042C420.731,-197.42 428.289,-185.637 435.91,-173.757"/>
<polygon fill="none" stroke="midnightblue" points="410.836,-206.362 408.383,-216.668 416.728,-210.141 410.836,-206.362"/>
</g>
<!-- Node5 -->
<g id="node5" class="node"><title>Node5</title>
<g id="a_node5"><a xlink:href="classic_1_1populacional_1_1algoritmo_1_1operadores_1_1_seletor_3_01_g_01extends_01_number_00_01_23b601396f2a06ce9087495b09b33964.html" target="_top" xlink:title="{ic.populacional.algoritmo.operadores.\lSeletor\&lt; G extends Number, S\l extends Ser\&lt; G \&gt; \&gt;\n|# ambiente\l# populacao\l|+ Seletor()\l+ getPais()\l+ getSobreviventes()\l+ melhoresEntreAleatorios()\l}">
<polygon fill="white" stroke="black" points="604,-28.5 604,-151.5 782,-151.5 782,-28.5 604,-28.5"/>
<text text-anchor="start" x="612" y="-139.5" font-family="Helvetica,sans-Serif" font-size="10.00">ic.populacional.algoritmo.operadores.</text>
<text text-anchor="start" x="612" y="-128.5" font-family="Helvetica,sans-Serif" font-size="10.00">Seletor&lt; G extends Number, S</text>
<text text-anchor="middle" x="693" y="-117.5" font-family="Helvetica,sans-Serif" font-size="10.00"> extends Ser&lt; G &gt; &gt;</text>
<polyline fill="none" stroke="black" points="604,-110.5 782,-110.5 "/>
<text text-anchor="start" x="612" y="-98.5" font-family="Helvetica,sans-Serif" font-size="10.00"># ambiente</text>
<text text-anchor="start" x="612" y="-87.5" font-family="Helvetica,sans-Serif" font-size="10.00"># populacao</text>
<polyline fill="none" stroke="black" points="604,-80.5 782,-80.5 "/>
<text text-anchor="start" x="612" y="-68.5" font-family="Helvetica,sans-Serif" font-size="10.00">+ Seletor()</text>
<text text-anchor="start" x="612" y="-57.5" font-family="Helvetica,sans-Serif" font-size="10.00">+ getPais()</text>
<text text-anchor="start" x="612" y="-46.5" font-family="Helvetica,sans-Serif" font-size="10.00">+ getSobreviventes()</text>
<text text-anchor="start" x="612" y="-35.5" font-family="Helvetica,sans-Serif" font-size="10.00">+ melhoresEntreAleatorios()</text>
</a>
</g>
</g>
<!-- Node1&#45;&gt;Node5 -->
<g id="edge4" class="edge"><title>Node1&#45;&gt;Node5</title>
<path fill="none" stroke="midnightblue" d="M485.903,-225.514C521.369,-214.455 560.774,-199.431 594,-180 607.566,-172.066 620.911,-162.068 633.194,-151.661"/>
<polygon fill="none" stroke="midnightblue" points="484.558,-222.265 476.013,-228.528 486.599,-228.961 484.558,-222.265"/>
</g>
</g>
</svg>
