<?xml version="1.0" encoding="UTF-8" standalone="no"?>
<!DOCTYPE svg PUBLIC "-//W3C//DTD SVG 1.1//EN"
 "http://www.w3.org/Graphics/SVG/1.1/DTD/svg11.dtd">
<!-- Generated by graphviz version 2.36.0 (20140111.2315)
 -->
<!-- Title: ic.populacional.algoritmo.operadores.Mutador&lt; T extends Ser &gt; Pages: 1 -->
<svg width="186pt" height="294pt"
 viewBox="0.00 0.00 186.00 294.00" xmlns="http://www.w3.org/2000/svg" xmlns:xlink="http://www.w3.org/1999/xlink">
<g id="graph0" class="graph" transform="scale(1 1) rotate(0) translate(4 290)">
<title>ic.populacional.algoritmo.operadores.Mutador&lt; T extends Ser &gt;</title>
<polygon fill="white" stroke="none" points="-4,4 -4,-290 182,-290 182,4 -4,4"/>
<!-- Node1 -->
<g id="node1" class="node"><title>Node1</title>
<polygon fill="#bfbfbf" stroke="black" points="0,-1 0,-179 178,-179 178,-1 0,-1"/>
<text text-anchor="start" x="8" y="-167" font-family="Helvetica,sans-Serif" font-size="10.00">ic.populacional.algoritmo.operadores.</text>
<text text-anchor="middle" x="89" y="-156" font-family="Helvetica,sans-Serif" font-size="10.00">Mutador&lt; T extends Ser &gt;</text>
<polyline fill="none" stroke="black" points="0,-149 178,-149 "/>
<text text-anchor="start" x="8" y="-137" font-family="Helvetica,sans-Serif" font-size="10.00"># probabilidadeDeMutacao</text>
<polyline fill="none" stroke="black" points="0,-130 178,-130 "/>
<text text-anchor="start" x="8" y="-118" font-family="Helvetica,sans-Serif" font-size="10.00">+ Mutador()</text>
<text text-anchor="start" x="8" y="-107" font-family="Helvetica,sans-Serif" font-size="10.00">+ muta()</text>
<text text-anchor="start" x="8" y="-96" font-family="Helvetica,sans-Serif" font-size="10.00">+ muta()</text>
<text text-anchor="start" x="8" y="-85" font-family="Helvetica,sans-Serif" font-size="10.00">+ sorteiaSeMuta()</text>
<text text-anchor="start" x="8" y="-74" font-family="Helvetica,sans-Serif" font-size="10.00">+ getProbabilidadeMutacao()</text>
<text text-anchor="start" x="8" y="-63" font-family="Helvetica,sans-Serif" font-size="10.00">+ troca2Aleatorios()</text>
<text text-anchor="start" x="8" y="-52" font-family="Helvetica,sans-Serif" font-size="10.00">+ bitFlipping()</text>
<text text-anchor="start" x="8" y="-41" font-family="Helvetica,sans-Serif" font-size="10.00">+ flip()</text>
<text text-anchor="start" x="8" y="-30" font-family="Helvetica,sans-Serif" font-size="10.00">+ troca()</text>
<text text-anchor="start" x="8" y="-19" font-family="Helvetica,sans-Serif" font-size="10.00">+ mutacaoUniforme()</text>
<text text-anchor="start" x="8" y="-8" font-family="Helvetica,sans-Serif" font-size="10.00">&#45; setProbabilidadeMutacao()</text>
</g>
<!-- Node2 -->
<g id="node2" class="node"><title>Node2</title>
<g id="a_node2"><a xlink:href="classic_1_1populacional_1_1algoritmo_1_1operadores_1_1_operador.html" target="_top" xlink:title="{ic.populacional.algoritmo.operadores.\lOperador\n||}">
<polygon fill="white" stroke="black" points="0,-217 0,-285 178,-285 178,-217 0,-217"/>
<text text-anchor="start" x="8" y="-273" font-family="Helvetica,sans-Serif" font-size="10.00">ic.populacional.algoritmo.operadores.</text>
<text text-anchor="middle" x="89" y="-262" font-family="Helvetica,sans-Serif" font-size="10.00">Operador</text>
<polyline fill="none" stroke="black" points="0,-255 178,-255 "/>
<text text-anchor="middle" x="89" y="-243" font-family="Helvetica,sans-Serif" font-size="10.00"> </text>
<polyline fill="none" stroke="black" points="0,-236 178,-236 "/>
<text text-anchor="middle" x="89" y="-224" font-family="Helvetica,sans-Serif" font-size="10.00"> </text>
</a>
</g>
</g>
<!-- Node2&#45;&gt;Node1 -->
<g id="edge1" class="edge"><title>Node2&#45;&gt;Node1</title>
<path fill="none" stroke="midnightblue" d="M89,-206.609C89,-198.044 89,-188.769 89,-179.325"/>
<polygon fill="none" stroke="midnightblue" points="85.5001,-206.668 89,-216.668 92.5001,-206.668 85.5001,-206.668"/>
</g>
</g>
</svg>
