<?xml version="1.0" encoding="UTF-8" standalone="no"?>
<!DOCTYPE svg PUBLIC "-//W3C//DTD SVG 1.1//EN"
 "http://www.w3.org/Graphics/SVG/1.1/DTD/svg11.dtd">
<!-- Generated by graphviz version 2.36.0 (20140111.2315)
 -->
<!-- Title: ic.populacional.algoritmo.AGSimples&lt; G extends Number, S extends Ser&lt; G &gt; &gt; Pages: 1 -->
<svg width="168pt" height="216pt"
 viewBox="0.00 0.00 168.00 216.00" xmlns="http://www.w3.org/2000/svg" xmlns:xlink="http://www.w3.org/1999/xlink">
<g id="graph0" class="graph" transform="scale(1 1) rotate(0) translate(4 212)">
<title>ic.populacional.algoritmo.AGSimples&lt; G extends Number, S extends Ser&lt; G &gt; &gt;</title>
<polygon fill="white" stroke="none" points="-4,4 -4,-212 164,-212 164,4 -4,4"/>
<!-- Node1 -->
<g id="node1" class="node"><title>Node1</title>
<polygon fill="#bfbfbf" stroke="black" points="0,-0.5 0,-101.5 160,-101.5 160,-0.5 0,-0.5"/>
<text text-anchor="start" x="8" y="-89.5" font-family="Helvetica,sans-Serif" font-size="10.00">ic.populacional.algoritmo.</text>
<text text-anchor="start" x="8" y="-78.5" font-family="Helvetica,sans-Serif" font-size="10.00">AGSimples&lt; G extends Number,</text>
<text text-anchor="middle" x="80" y="-67.5" font-family="Helvetica,sans-Serif" font-size="10.00"> S extends Ser&lt; G &gt; &gt;</text>
<polyline fill="none" stroke="black" points="0,-60.5 160,-60.5 "/>
<text text-anchor="middle" x="80" y="-48.5" font-family="Helvetica,sans-Serif" font-size="10.00"> </text>
<polyline fill="none" stroke="black" points="0,-41.5 160,-41.5 "/>
<text text-anchor="start" x="8" y="-29.5" font-family="Helvetica,sans-Serif" font-size="10.00">+ terminou()</text>
<text text-anchor="start" x="8" y="-18.5" font-family="Helvetica,sans-Serif" font-size="10.00">+ iteracao()</text>
<text text-anchor="start" x="8" y="-7.5" font-family="Helvetica,sans-Serif" font-size="10.00">~ [instance initializer]()</text>
</g>
<!-- Node2 -->
<g id="node2" class="node"><title>Node2</title>
<polygon fill="white" stroke="#bfbfbf" points="22,-139 22,-207 138,-207 138,-139 22,-139"/>
<text text-anchor="start" x="30" y="-195" font-family="Helvetica,sans-Serif" font-size="10.00">AlgoritmoEvolucionario</text>
<text text-anchor="middle" x="80" y="-184" font-family="Helvetica,sans-Serif" font-size="10.00">&lt; G, S &gt;</text>
<polyline fill="none" stroke="#bfbfbf" points="22,-177 138,-177 "/>
<text text-anchor="middle" x="80" y="-165" font-family="Helvetica,sans-Serif" font-size="10.00"> </text>
<polyline fill="none" stroke="#bfbfbf" points="22,-158 138,-158 "/>
<text text-anchor="middle" x="80" y="-146" font-family="Helvetica,sans-Serif" font-size="10.00"> </text>
</g>
<!-- Node2&#45;&gt;Node1 -->
<g id="edge1" class="edge"><title>Node2&#45;&gt;Node1</title>
<path fill="none" stroke="midnightblue" d="M80,-128.831C80,-120.01 80,-110.661 80,-101.636"/>
<polygon fill="none" stroke="midnightblue" points="76.5001,-128.892 80,-138.892 83.5001,-128.892 76.5001,-128.892"/>
</g>
</g>
</svg>
