<?xml version="1.0" encoding="UTF-8" standalone="no"?>
<!DOCTYPE svg PUBLIC "-//W3C//DTD SVG 1.1//EN"
 "http://www.w3.org/Graphics/SVG/1.1/DTD/svg11.dtd">
<!-- Generated by graphviz version 2.36.0 (20140111.2315)
 -->
<!-- Title: ic.populacional.Ambiente&lt; G extends Number, S extends Ser&lt; G &gt; &gt; Pages: 1 -->
<svg width="166pt" height="248pt"
 viewBox="0.00 0.00 166.00 248.00" xmlns="http://www.w3.org/2000/svg" xmlns:xlink="http://www.w3.org/1999/xlink">
<g id="graph0" class="graph" transform="scale(1 1) rotate(0) translate(4 244)">
<title>ic.populacional.Ambiente&lt; G extends Number, S extends Ser&lt; G &gt; &gt;</title>
<polygon fill="white" stroke="none" points="-4,4 -4,-244 162,-244 162,4 -4,4"/>
<!-- Node1 -->
<g id="node1" class="node"><title>Node1</title>
<polygon fill="#bfbfbf" stroke="black" points="0,-0.5 0,-145.5 158,-145.5 158,-0.5 0,-0.5"/>
<text text-anchor="start" x="8" y="-133.5" font-family="Helvetica,sans-Serif" font-size="10.00">ic.populacional.Ambiente</text>
<text text-anchor="start" x="8" y="-122.5" font-family="Helvetica,sans-Serif" font-size="10.00">&lt; G extends Number, S extends</text>
<text text-anchor="middle" x="79" y="-111.5" font-family="Helvetica,sans-Serif" font-size="10.00"> Ser&lt; G &gt; &gt;</text>
<polyline fill="none" stroke="black" points="0,-104.5 158,-104.5 "/>
<text text-anchor="middle" x="79" y="-92.5" font-family="Helvetica,sans-Serif" font-size="10.00"> </text>
<polyline fill="none" stroke="black" points="0,-85.5 158,-85.5 "/>
<text text-anchor="start" x="8" y="-73.5" font-family="Helvetica,sans-Serif" font-size="10.00">+ compare()</text>
<text text-anchor="start" x="8" y="-62.5" font-family="Helvetica,sans-Serif" font-size="10.00">+ comparadorInverso()</text>
<text text-anchor="start" x="8" y="-51.5" font-family="Helvetica,sans-Serif" font-size="10.00">+ avalia()</text>
<text text-anchor="start" x="8" y="-40.5" font-family="Helvetica,sans-Serif" font-size="10.00">+ avalia()</text>
<text text-anchor="start" x="8" y="-29.5" font-family="Helvetica,sans-Serif" font-size="10.00">+ avalia()</text>
<text text-anchor="start" x="8" y="-18.5" font-family="Helvetica,sans-Serif" font-size="10.00">+ toString()</text>
<text text-anchor="start" x="8" y="-7.5" font-family="Helvetica,sans-Serif" font-size="10.00">&#45; compara()</text>
</g>
<!-- Node2 -->
<g id="node2" class="node"><title>Node2</title>
<polygon fill="white" stroke="#bfbfbf" points="12,-182.5 12,-239.5 146,-239.5 146,-182.5 12,-182.5"/>
<text text-anchor="middle" x="79" y="-227.5" font-family="Helvetica,sans-Serif" font-size="10.00">java::util::Comparator&lt; S &gt;</text>
<polyline fill="none" stroke="#bfbfbf" points="12,-220.5 146,-220.5 "/>
<text text-anchor="middle" x="79" y="-208.5" font-family="Helvetica,sans-Serif" font-size="10.00"> </text>
<polyline fill="none" stroke="#bfbfbf" points="12,-201.5 146,-201.5 "/>
<text text-anchor="middle" x="79" y="-189.5" font-family="Helvetica,sans-Serif" font-size="10.00"> </text>
</g>
<!-- Node2&#45;&gt;Node1 -->
<g id="edge1" class="edge"><title>Node2&#45;&gt;Node1</title>
<path fill="none" stroke="midnightblue" d="M79,-172.356C79,-163.999 79,-154.872 79,-145.656"/>
<polygon fill="none" stroke="midnightblue" points="75.5001,-172.478 79,-182.478 82.5001,-172.478 75.5001,-172.478"/>
</g>
</g>
</svg>
