<?xml version="1.0" encoding="UTF-8" standalone="no"?>
<!DOCTYPE svg PUBLIC "-//W3C//DTD SVG 1.1//EN"
 "http://www.w3.org/Graphics/SVG/1.1/DTD/svg11.dtd">
<!-- Generated by graphviz version 2.36.0 (20140111.2315)
 -->
<!-- Title: ic.populacional.algoritmo.operadores.Seletor&lt; G extends Number, S extends Ser&lt; G &gt; &gt; Pages: 1 -->
<svg width="344pt" height="240pt"
 viewBox="0.00 0.00 344.00 240.00" xmlns="http://www.w3.org/2000/svg" xmlns:xlink="http://www.w3.org/1999/xlink">
<g id="graph0" class="graph" transform="scale(1 1) rotate(0) translate(4 236)">
<title>ic.populacional.algoritmo.operadores.Seletor&lt; G extends Number, S extends Ser&lt; G &gt; &gt;</title>
<polygon fill="white" stroke="none" points="-4,4 -4,-236 340,-236 340,4 -4,4"/>
<!-- Node1 -->
<g id="node1" class="node"><title>Node1</title>
<polygon fill="#bfbfbf" stroke="black" points="136,-1 136,-113 314,-113 314,-1 136,-1"/>
<text text-anchor="start" x="144" y="-101" font-family="Helvetica,sans-Serif" font-size="10.00">ic.populacional.algoritmo.operadores.</text>
<text text-anchor="start" x="144" y="-90" font-family="Helvetica,sans-Serif" font-size="10.00">Seletor&lt; G extends Number, S</text>
<text text-anchor="middle" x="225" y="-79" font-family="Helvetica,sans-Serif" font-size="10.00"> extends Ser&lt; G &gt; &gt;</text>
<polyline fill="none" stroke="black" points="136,-72 314,-72 "/>
<text text-anchor="middle" x="225" y="-60" font-family="Helvetica,sans-Serif" font-size="10.00"> </text>
<polyline fill="none" stroke="black" points="136,-53 314,-53 "/>
<text text-anchor="start" x="144" y="-41" font-family="Helvetica,sans-Serif" font-size="10.00">+ Seletor()</text>
<text text-anchor="start" x="144" y="-30" font-family="Helvetica,sans-Serif" font-size="10.00">+ getPais()</text>
<text text-anchor="start" x="144" y="-19" font-family="Helvetica,sans-Serif" font-size="10.00">+ getSobreviventes()</text>
<text text-anchor="start" x="144" y="-8" font-family="Helvetica,sans-Serif" font-size="10.00">+ melhoresEntreAleatorios()</text>
</g>
<!-- Node2 -->
<g id="node2" class="node"><title>Node2</title>
<g id="a_node2"><a xlink:href="classic_1_1populacional_1_1algoritmo_1_1operadores_1_1_operador.html" target="_top" xlink:title="{ic.populacional.algoritmo.operadores.\lOperador\n||}">
<polygon fill="white" stroke="black" points="0,-163 0,-231 178,-231 178,-163 0,-163"/>
<text text-anchor="start" x="8" y="-219" font-family="Helvetica,sans-Serif" font-size="10.00">ic.populacional.algoritmo.operadores.</text>
<text text-anchor="middle" x="89" y="-208" font-family="Helvetica,sans-Serif" font-size="10.00">Operador</text>
<polyline fill="none" stroke="black" points="0,-201 178,-201 "/>
<text text-anchor="middle" x="89" y="-189" font-family="Helvetica,sans-Serif" font-size="10.00"> </text>
<polyline fill="none" stroke="black" points="0,-182 178,-182 "/>
<text text-anchor="middle" x="89" y="-170" font-family="Helvetica,sans-Serif" font-size="10.00"> </text>
</a>
</g>
</g>
<!-- Node2&#45;&gt;Node1 -->
<g id="edge1" class="edge"><title>Node2&#45;&gt;Node1</title>
<path fill="none" stroke="midnightblue" d="M128.672,-155.745C141.792,-142.432 156.625,-127.381 170.65,-113.149"/>
<polygon fill="none" stroke="midnightblue" points="126.102,-153.366 121.575,-162.946 131.088,-158.28 126.102,-153.366"/>
</g>
<!-- Node3 -->
<g id="node3" class="node"><title>Node3</title>
<polygon fill="white" stroke="#bfbfbf" points="196,-168.5 196,-225.5 254,-225.5 254,-168.5 196,-168.5"/>
<text text-anchor="middle" x="225" y="-213.5" font-family="Helvetica,sans-Serif" font-size="10.00">Ambiente</text>
<polyline fill="none" stroke="#bfbfbf" points="196,-206.5 254,-206.5 "/>
<text text-anchor="middle" x="225" y="-194.5" font-family="Helvetica,sans-Serif" font-size="10.00"> </text>
<polyline fill="none" stroke="#bfbfbf" points="196,-187.5 254,-187.5 "/>
<text text-anchor="middle" x="225" y="-175.5" font-family="Helvetica,sans-Serif" font-size="10.00"> </text>
</g>
<!-- Node3&#45;&gt;Node1 -->
<g id="edge2" class="edge"><title>Node3&#45;&gt;Node1</title>
<path fill="none" stroke="#404040" d="M225,-168.405C225,-155.93 225,-140.59 225,-125.356"/>
<polygon fill="none" stroke="#404040" points="225,-125.219 221,-119.219 225,-113.219 229,-119.219 225,-125.219"/>
<text text-anchor="middle" x="249.5" y="-135.5" font-family="Helvetica,sans-Serif" font-size="10.00"> #ambiente</text>
</g>
<!-- Node4 -->
<g id="node4" class="node"><title>Node4</title>
<polygon fill="white" stroke="#bfbfbf" points="272,-168.5 272,-225.5 334,-225.5 334,-168.5 272,-168.5"/>
<text text-anchor="middle" x="303" y="-213.5" font-family="Helvetica,sans-Serif" font-size="10.00">Populacao</text>
<polyline fill="none" stroke="#bfbfbf" points="272,-206.5 334,-206.5 "/>
<text text-anchor="middle" x="303" y="-194.5" font-family="Helvetica,sans-Serif" font-size="10.00"> </text>
<polyline fill="none" stroke="#bfbfbf" points="272,-187.5 334,-187.5 "/>
<text text-anchor="middle" x="303" y="-175.5" font-family="Helvetica,sans-Serif" font-size="10.00"> </text>
</g>
<!-- Node4&#45;&gt;Node1 -->
<g id="edge3" class="edge"><title>Node4&#45;&gt;Node1</title>
<path fill="none" stroke="#404040" d="M293.869,-168.233C289.651,-156.729 284.199,-143.429 278,-132 276.464,-129.168 274.836,-126.317 273.141,-123.469"/>
<polygon fill="none" stroke="#404040" points="273.094,-123.393 266.528,-120.412 266.753,-113.205 273.32,-116.185 273.094,-123.393"/>
<text text-anchor="middle" x="309.5" y="-135.5" font-family="Helvetica,sans-Serif" font-size="10.00"> #populacao</text>
</g>
</g>
</svg>
