<?xml version="1.0" encoding="UTF-8" standalone="no"?>
<!DOCTYPE svg PUBLIC "-//W3C//DTD SVG 1.1//EN"
 "http://www.w3.org/Graphics/SVG/1.1/DTD/svg11.dtd">
<!-- Generated by graphviz version 2.36.0 (20140111.2315)
 -->
<!-- Title: ic.populacional.Ser&lt; N extends Number &gt; Pages: 1 -->
<svg width="142pt" height="348pt"
 viewBox="0.00 0.00 142.00 348.00" xmlns="http://www.w3.org/2000/svg" xmlns:xlink="http://www.w3.org/1999/xlink">
<g id="graph0" class="graph" transform="scale(1 1) rotate(0) translate(4 344)">
<title>ic.populacional.Ser&lt; N extends Number &gt;</title>
<polygon fill="white" stroke="none" points="-4,4 -4,-344 138,-344 138,4 -4,4"/>
<!-- Node1 -->
<g id="node1" class="node"><title>Node1</title>
<polygon fill="#bfbfbf" stroke="black" points="-0.5,-1 -0.5,-245 134.5,-245 134.5,-1 -0.5,-1"/>
<text text-anchor="start" x="7.5" y="-233" font-family="Helvetica,sans-Serif" font-size="10.00">ic.populacional.Ser</text>
<text text-anchor="middle" x="67" y="-222" font-family="Helvetica,sans-Serif" font-size="10.00">&lt; N extends Number &gt;</text>
<polyline fill="none" stroke="black" points="-0.5,-215 134.5,-215 "/>
<text text-anchor="start" x="7.5" y="-203" font-family="Helvetica,sans-Serif" font-size="10.00"># grauDeAdaptacao</text>
<text text-anchor="start" x="7.5" y="-192" font-family="Helvetica,sans-Serif" font-size="10.00"># caracteristicas</text>
<polyline fill="none" stroke="black" points="-0.5,-185 134.5,-185 "/>
<text text-anchor="start" x="7.5" y="-173" font-family="Helvetica,sans-Serif" font-size="10.00">+ setCaracteristicas()</text>
<text text-anchor="start" x="7.5" y="-162" font-family="Helvetica,sans-Serif" font-size="10.00">+ setCaracteristica()</text>
<text text-anchor="start" x="7.5" y="-151" font-family="Helvetica,sans-Serif" font-size="10.00">+ setCaracteristicaCopia()</text>
<text text-anchor="start" x="7.5" y="-140" font-family="Helvetica,sans-Serif" font-size="10.00">+ setCaracteristicas()</text>
<text text-anchor="start" x="7.5" y="-129" font-family="Helvetica,sans-Serif" font-size="10.00">+ setCaracteristicasCopia()</text>
<text text-anchor="start" x="7.5" y="-118" font-family="Helvetica,sans-Serif" font-size="10.00">+ getCaracteristicas()</text>
<text text-anchor="start" x="7.5" y="-107" font-family="Helvetica,sans-Serif" font-size="10.00">+ getCaracteristicasCopia()</text>
<text text-anchor="start" x="7.5" y="-96" font-family="Helvetica,sans-Serif" font-size="10.00">+ getCaracteristica()</text>
<text text-anchor="start" x="7.5" y="-85" font-family="Helvetica,sans-Serif" font-size="10.00">+ getTamanho()</text>
<text text-anchor="start" x="7.5" y="-74" font-family="Helvetica,sans-Serif" font-size="10.00">+ isCompativel()</text>
<text text-anchor="start" x="7.5" y="-63" font-family="Helvetica,sans-Serif" font-size="10.00">+ isCompativel()</text>
<text text-anchor="start" x="7.5" y="-52" font-family="Helvetica,sans-Serif" font-size="10.00">+ setGrauDeAdaptacao()</text>
<text text-anchor="start" x="7.5" y="-41" font-family="Helvetica,sans-Serif" font-size="10.00">+ getGrauDeAdaptacao()</text>
<text text-anchor="start" x="7.5" y="-30" font-family="Helvetica,sans-Serif" font-size="10.00">+ getEspecie()</text>
<text text-anchor="start" x="7.5" y="-19" font-family="Helvetica,sans-Serif" font-size="10.00">+ toString()</text>
<text text-anchor="start" x="7.5" y="-8" font-family="Helvetica,sans-Serif" font-size="10.00">+ iterator()</text>
</g>
<!-- Node2 -->
<g id="node2" class="node"><title>Node2</title>
<polygon fill="white" stroke="#bfbfbf" points="3.5,-282.5 3.5,-339.5 130.5,-339.5 130.5,-282.5 3.5,-282.5"/>
<text text-anchor="middle" x="67" y="-327.5" font-family="Helvetica,sans-Serif" font-size="10.00">Iterable&lt; Caracteristica &gt;</text>
<polyline fill="none" stroke="#bfbfbf" points="3.5,-320.5 130.5,-320.5 "/>
<text text-anchor="middle" x="67" y="-308.5" font-family="Helvetica,sans-Serif" font-size="10.00"> </text>
<polyline fill="none" stroke="#bfbfbf" points="3.5,-301.5 130.5,-301.5 "/>
<text text-anchor="middle" x="67" y="-289.5" font-family="Helvetica,sans-Serif" font-size="10.00"> </text>
</g>
<!-- Node2&#45;&gt;Node1 -->
<g id="edge1" class="edge"><title>Node2&#45;&gt;Node1</title>
<path fill="none" stroke="midnightblue" d="M67,-271.933C67,-263.741 67,-254.663 67,-245.15"/>
<polygon fill="none" stroke="midnightblue" points="63.5001,-272.154 67,-282.154 70.5001,-272.154 63.5001,-272.154"/>
</g>
</g>
</svg>
