<?xml version="1.0" encoding="UTF-8" standalone="no"?>
<!DOCTYPE svg PUBLIC "-//W3C//DTD SVG 1.1//EN"
 "http://www.w3.org/Graphics/SVG/1.1/DTD/svg11.dtd">
<!-- Generated by graphviz version 2.36.0 (20140111.2315)
 -->
<!-- Title: ic.populacional.utilidades.Aleatorios.getUniformeDouble Pages: 1 -->
<svg width="570pt" height="87pt"
 viewBox="0.00 0.00 570.00 87.00" xmlns="http://www.w3.org/2000/svg" xmlns:xlink="http://www.w3.org/1999/xlink">
<g id="graph0" class="graph" transform="scale(1 1) rotate(0) translate(4 83)">
<title>ic.populacional.utilidades.Aleatorios.getUniformeDouble</title>
<polygon fill="white" stroke="none" points="-4,4 -4,-83 566,-83 566,4 -4,4"/>
<!-- Node1 -->
<g id="node1" class="node"><title>Node1</title>
<polygon fill="#bfbfbf" stroke="black" points="0,-24 0,-54 146,-54 146,-24 0,-24"/>
<text text-anchor="start" x="8" y="-42" font-family="Helvetica,sans-Serif" font-size="10.00">ic.populacional.utilidades.</text>
<text text-anchor="middle" x="73" y="-31" font-family="Helvetica,sans-Serif" font-size="10.00">Aleatorios.getUniformeDouble</text>
</g>
<!-- Node2 -->
<g id="node2" class="node"><title>Node2</title>
<g id="a_node2"><a xlink:href="classic_1_1populacional_1_1utilidades_1_1_aleatorios.html#a92ad4ea348ed7dd0fd3e400f2389abe4" target="_top" xlink:title="ic.populacional.utilidades.\lAleatorios.sorteioUniforme">
<polygon fill="white" stroke="black" points="182.5,-24 182.5,-54 313.5,-54 313.5,-24 182.5,-24"/>
<text text-anchor="start" x="190.5" y="-42" font-family="Helvetica,sans-Serif" font-size="10.00">ic.populacional.utilidades.</text>
<text text-anchor="middle" x="248" y="-31" font-family="Helvetica,sans-Serif" font-size="10.00">Aleatorios.sorteioUniforme</text>
</a>
</g>
</g>
<!-- Node1&#45;&gt;Node2 -->
<g id="edge1" class="edge"><title>Node1&#45;&gt;Node2</title>
<path fill="none" stroke="midnightblue" d="M156.354,-39C165.116,-39 173.936,-39 182.451,-39"/>
<polygon fill="midnightblue" stroke="midnightblue" points="156.115,-35.5001 146.115,-39 156.115,-42.5001 156.115,-35.5001"/>
</g>
<!-- Node3 -->
<g id="node3" class="node"><title>Node3</title>
<g id="a_node3"><a xlink:href="classic_1_1populacional_1_1algoritmo_1_1operadores_1_1_mutador_3_01_t_01extends_01_ser_01_4.html#aebd2c6138299aa0bb03788702683133b" target="_top" xlink:title="bit&#45;flipping ">
<polygon fill="white" stroke="black" points="366.5,-49 366.5,-79 545.5,-79 545.5,-49 366.5,-49"/>
<text text-anchor="start" x="374.5" y="-67" font-family="Helvetica,sans-Serif" font-size="10.00">ic.populacional.algoritmo.operadores.</text>
<text text-anchor="middle" x="456" y="-56" font-family="Helvetica,sans-Serif" font-size="10.00">Mutador&lt; T extends Ser &gt;.bitFlipping</text>
</a>
</g>
</g>
<!-- Node2&#45;&gt;Node3 -->
<g id="edge2" class="edge"><title>Node2&#45;&gt;Node3</title>
<path fill="none" stroke="midnightblue" d="M323.597,-48.053C337.51,-49.7415 352.173,-51.5211 366.458,-53.2546"/>
<polygon fill="midnightblue" stroke="midnightblue" points="323.963,-44.5719 313.614,-46.8416 323.12,-51.5209 323.963,-44.5719"/>
</g>
<!-- Node4 -->
<g id="node4" class="node"><title>Node4</title>
<g id="a_node4"><a xlink:href="classic_1_1populacional_1_1algoritmo_1_1operadores_1_1_mutador_3_01_t_01extends_01_ser_01_4.html#a5df9cb67362f75c21821a6c597151b86" target="_top" xlink:title="Mutação Uniforme. ">
<polygon fill="white" stroke="black" points="350.5,-0 350.5,-30 561.5,-30 561.5,-0 350.5,-0"/>
<text text-anchor="start" x="358.5" y="-18" font-family="Helvetica,sans-Serif" font-size="10.00">ic.populacional.algoritmo.operadores.</text>
<text text-anchor="middle" x="456" y="-7" font-family="Helvetica,sans-Serif" font-size="10.00">Mutador&lt; T extends Ser &gt;.mutacaoUniforme</text>
</a>
</g>
</g>
<!-- Node2&#45;&gt;Node4 -->
<g id="edge3" class="edge"><title>Node2&#45;&gt;Node4</title>
<path fill="none" stroke="midnightblue" d="M323.637,-30.3045C332.302,-29.2949 341.257,-28.2516 350.231,-27.2061"/>
<polygon fill="midnightblue" stroke="midnightblue" points="323.142,-26.8383 313.614,-31.4721 323.952,-33.7913 323.142,-26.8383"/>
</g>
</g>
</svg>
