<?xml version="1.0" encoding="UTF-8" standalone="no"?>
<!DOCTYPE svg PUBLIC "-//W3C//DTD SVG 1.1//EN"
 "http://www.w3.org/Graphics/SVG/1.1/DTD/svg11.dtd">
<!-- Generated by graphviz version 2.36.0 (20140111.2315)
 -->
<!-- Title: ic.populacional.seres.permutacao.GeradorPermutacoes Pages: 1 -->
<svg width="172pt" height="260pt"
 viewBox="0.00 0.00 172.00 260.00" xmlns="http://www.w3.org/2000/svg" xmlns:xlink="http://www.w3.org/1999/xlink">
<g id="graph0" class="graph" transform="scale(1 1) rotate(0) translate(4 256)">
<title>ic.populacional.seres.permutacao.GeradorPermutacoes</title>
<polygon fill="white" stroke="none" points="-4,4 -4,-256 168,-256 168,4 -4,4"/>
<!-- Node1 -->
<g id="node1" class="node"><title>Node1</title>
<polygon fill="#bfbfbf" stroke="black" points="-0.5,-0.5 -0.5,-145.5 164.5,-145.5 164.5,-0.5 -0.5,-0.5"/>
<text text-anchor="start" x="7.5" y="-133.5" font-family="Helvetica,sans-Serif" font-size="10.00">ic.populacional.seres.permutacao.</text>
<text text-anchor="middle" x="82" y="-122.5" font-family="Helvetica,sans-Serif" font-size="10.00">GeradorPermutacoes</text>
<polyline fill="none" stroke="black" points="-0.5,-115.5 164.5,-115.5 "/>
<text text-anchor="start" x="7.5" y="-103.5" font-family="Helvetica,sans-Serif" font-size="10.00">&#45; limiteInferior</text>
<text text-anchor="start" x="7.5" y="-92.5" font-family="Helvetica,sans-Serif" font-size="10.00">&#45; limiteSuperior</text>
<polyline fill="none" stroke="black" points="-0.5,-85.5 164.5,-85.5 "/>
<text text-anchor="start" x="7.5" y="-73.5" font-family="Helvetica,sans-Serif" font-size="10.00">+ GeradorPermutacoes()</text>
<text text-anchor="start" x="7.5" y="-62.5" font-family="Helvetica,sans-Serif" font-size="10.00">+ geraAleatorio()</text>
<text text-anchor="start" x="7.5" y="-51.5" font-family="Helvetica,sans-Serif" font-size="10.00">+ gera()</text>
<text text-anchor="start" x="7.5" y="-40.5" font-family="Helvetica,sans-Serif" font-size="10.00">+ getLimiteInferior()</text>
<text text-anchor="start" x="7.5" y="-29.5" font-family="Helvetica,sans-Serif" font-size="10.00">+ setLimiteInferior()</text>
<text text-anchor="start" x="7.5" y="-18.5" font-family="Helvetica,sans-Serif" font-size="10.00">+ getLimiteSuperior()</text>
<text text-anchor="start" x="7.5" y="-7.5" font-family="Helvetica,sans-Serif" font-size="10.00">+ setLimiteSuperior()</text>
</g>
<!-- Node2 -->
<g id="node2" class="node"><title>Node2</title>
<polygon fill="white" stroke="#bfbfbf" points="10,-183 10,-251 154,-251 154,-183 10,-183"/>
<text text-anchor="start" x="18" y="-239" font-family="Helvetica,sans-Serif" font-size="10.00">ic::populacional::algoritmo</text>
<text text-anchor="middle" x="82" y="-228" font-family="Helvetica,sans-Serif" font-size="10.00">::operadores::Gerador&lt; Ser &gt;</text>
<polyline fill="none" stroke="#bfbfbf" points="10,-221 154,-221 "/>
<text text-anchor="middle" x="82" y="-209" font-family="Helvetica,sans-Serif" font-size="10.00"> </text>
<polyline fill="none" stroke="#bfbfbf" points="10,-202 154,-202 "/>
<text text-anchor="middle" x="82" y="-190" font-family="Helvetica,sans-Serif" font-size="10.00"> </text>
</g>
<!-- Node2&#45;&gt;Node1 -->
<g id="edge1" class="edge"><title>Node2&#45;&gt;Node1</title>
<path fill="none" stroke="midnightblue" d="M82,-172.643C82,-164.101 82,-154.926 82,-145.735"/>
<polygon fill="none" stroke="midnightblue" points="78.5001,-172.707 82,-182.707 85.5001,-172.707 78.5001,-172.707"/>
</g>
</g>
</svg>
