<?xml version="1.0" encoding="UTF-8" standalone="no"?>
<!DOCTYPE svg PUBLIC "-//W3C//DTD SVG 1.1//EN"
 "http://www.w3.org/Graphics/SVG/1.1/DTD/svg11.dtd">
<!-- Generated by graphviz version 2.36.0 (20140111.2315)
 -->
<!-- Title: ic.populacional.CaracteristicaBinaria.setBit Pages: 1 -->
<svg width="358pt" height="38pt"
 viewBox="0.00 0.00 358.00 38.00" xmlns="http://www.w3.org/2000/svg" xmlns:xlink="http://www.w3.org/1999/xlink">
<g id="graph0" class="graph" transform="scale(1 1) rotate(0) translate(4 34)">
<title>ic.populacional.CaracteristicaBinaria.setBit</title>
<polygon fill="white" stroke="none" points="-4,4 -4,-34 354,-34 354,4 -4,4"/>
<!-- Node1 -->
<g id="node1" class="node"><title>Node1</title>
<polygon fill="#bfbfbf" stroke="black" points="0,-0 0,-30 144,-30 144,-0 0,-0"/>
<text text-anchor="start" x="8" y="-18" font-family="Helvetica,sans-Serif" font-size="10.00">ic.populacional.Caracteristica</text>
<text text-anchor="middle" x="72" y="-7" font-family="Helvetica,sans-Serif" font-size="10.00">Binaria.setBit</text>
</g>
<!-- Node2 -->
<g id="node2" class="node"><title>Node2</title>
<g id="a_node2"><a xlink:href="classic_1_1populacional_1_1_caracteristica_binaria.html#a9fcfd9670e8f51b8c5142cb4c15a19c5" target="_top" xlink:title="ic.populacional.Caracteristica\lBinaria.setRepresentacaoNumerica">
<polygon fill="white" stroke="black" points="180,-0 180,-30 350,-30 350,-0 180,-0"/>
<text text-anchor="start" x="188" y="-18" font-family="Helvetica,sans-Serif" font-size="10.00">ic.populacional.Caracteristica</text>
<text text-anchor="middle" x="265" y="-7" font-family="Helvetica,sans-Serif" font-size="10.00">Binaria.setRepresentacaoNumerica</text>
</a>
</g>
</g>
<!-- Node1&#45;&gt;Node2 -->
<g id="edge1" class="edge"><title>Node1&#45;&gt;Node2</title>
<path fill="none" stroke="midnightblue" d="M154.351,-15C162.814,-15 171.428,-15 179.921,-15"/>
<polygon fill="midnightblue" stroke="midnightblue" points="154.121,-11.5001 144.121,-15 154.121,-18.5001 154.121,-11.5001"/>
</g>
</g>
</svg>
