<?xml version="1.0" encoding="UTF-8" standalone="no"?>
<!DOCTYPE svg PUBLIC "-//W3C//DTD SVG 1.1//EN"
 "http://www.w3.org/Graphics/SVG/1.1/DTD/svg11.dtd">
<!-- Generated by graphviz version 2.36.0 (20140111.2315)
 -->
<!-- Title: ic.populacional.seres.permutacao.GeradorPermutacoes.geraAleatorio Pages: 1 -->
<svg width="342pt" height="38pt"
 viewBox="0.00 0.00 342.00 38.00" xmlns="http://www.w3.org/2000/svg" xmlns:xlink="http://www.w3.org/1999/xlink">
<g id="graph0" class="graph" transform="scale(1 1) rotate(0) translate(4 34)">
<title>ic.populacional.seres.permutacao.GeradorPermutacoes.geraAleatorio</title>
<polygon fill="white" stroke="none" points="-4,4 -4,-34 338,-34 338,4 -4,4"/>
<!-- Node1 -->
<g id="node1" class="node"><title>Node1</title>
<polygon fill="#bfbfbf" stroke="black" points="0.5,-0 0.5,-30 169.5,-30 169.5,-0 0.5,-0"/>
<text text-anchor="start" x="8.5" y="-18" font-family="Helvetica,sans-Serif" font-size="10.00">ic.populacional.seres.permutacao.</text>
<text text-anchor="middle" x="85" y="-7" font-family="Helvetica,sans-Serif" font-size="10.00">GeradorPermutacoes.geraAleatorio</text>
</g>
<!-- Node2 -->
<g id="node2" class="node"><title>Node2</title>
<g id="a_node2"><a xlink:href="classic_1_1populacional_1_1utilidades_1_1_aleatorios.html#abe4033c418c92177bd338a4be239ae86" target="_top" xlink:title="Retorna n índices aleatórios em uma permutação de inteiros. ">
<polygon fill="white" stroke="black" points="206,-0 206,-30 334,-30 334,-0 206,-0"/>
<text text-anchor="start" x="214" y="-18" font-family="Helvetica,sans-Serif" font-size="10.00">ic.populacional.utilidades.</text>
<text text-anchor="middle" x="270" y="-7" font-family="Helvetica,sans-Serif" font-size="10.00">Aleatorios.permutacao</text>
</a>
</g>
</g>
<!-- Node1&#45;&gt;Node2 -->
<g id="edge1" class="edge"><title>Node1&#45;&gt;Node2</title>
<path fill="none" stroke="midnightblue" d="M169.734,-15C178.366,-15 187.09,-15 195.596,-15"/>
<polygon fill="midnightblue" stroke="midnightblue" points="195.844,-18.5001 205.844,-15 195.844,-11.5001 195.844,-18.5001"/>
</g>
</g>
</svg>
