<?xml version="1.0" encoding="UTF-8" standalone="no"?>
<!DOCTYPE svg PUBLIC "-//W3C//DTD SVG 1.1//EN"
 "http://www.w3.org/Graphics/SVG/1.1/DTD/svg11.dtd">
<!-- Generated by graphviz version 2.36.0 (20140111.2315)
 -->
<!-- Title: ic.populacional.Populacao&lt; G extends Number, S extends Ser&lt; G &gt; &gt; Pages: 1 -->
<svg width="196pt" height="304pt"
 viewBox="0.00 0.00 196.00 304.00" xmlns="http://www.w3.org/2000/svg" xmlns:xlink="http://www.w3.org/1999/xlink">
<g id="graph0" class="graph" transform="scale(1 1) rotate(0) translate(4 300)">
<title>ic.populacional.Populacao&lt; G extends Number, S extends Ser&lt; G &gt; &gt;</title>
<polygon fill="white" stroke="none" points="-4,4 -4,-300 192,-300 192,4 -4,4"/>
<!-- Node1 -->
<g id="node1" class="node"><title>Node1</title>
<polygon fill="#bfbfbf" stroke="black" points="9,-0.5 9,-189.5 167,-189.5 167,-0.5 9,-0.5"/>
<text text-anchor="start" x="17" y="-177.5" font-family="Helvetica,sans-Serif" font-size="10.00">ic.populacional.Populacao</text>
<text text-anchor="start" x="17" y="-166.5" font-family="Helvetica,sans-Serif" font-size="10.00">&lt; G extends Number, S extends</text>
<text text-anchor="middle" x="88" y="-155.5" font-family="Helvetica,sans-Serif" font-size="10.00"> Ser&lt; G &gt; &gt;</text>
<polyline fill="none" stroke="black" points="9,-148.5 167,-148.5 "/>
<text text-anchor="start" x="17" y="-136.5" font-family="Helvetica,sans-Serif" font-size="10.00">&#45; maxIndividuos</text>
<polyline fill="none" stroke="black" points="9,-129.5 167,-129.5 "/>
<text text-anchor="start" x="17" y="-117.5" font-family="Helvetica,sans-Serif" font-size="10.00">+ Populacao()</text>
<text text-anchor="start" x="17" y="-106.5" font-family="Helvetica,sans-Serif" font-size="10.00">+ setIndividuos()</text>
<text text-anchor="start" x="17" y="-95.5" font-family="Helvetica,sans-Serif" font-size="10.00">+ addIndividuos()</text>
<text text-anchor="start" x="17" y="-84.5" font-family="Helvetica,sans-Serif" font-size="10.00">+ getMaxIndividuos()</text>
<text text-anchor="start" x="17" y="-73.5" font-family="Helvetica,sans-Serif" font-size="10.00">+ getIndividuo()</text>
<text text-anchor="start" x="17" y="-62.5" font-family="Helvetica,sans-Serif" font-size="10.00">+ getNIndividuos()</text>
<text text-anchor="start" x="17" y="-51.5" font-family="Helvetica,sans-Serif" font-size="10.00">+ getMelhor()</text>
<text text-anchor="start" x="17" y="-40.5" font-family="Helvetica,sans-Serif" font-size="10.00">+ getMelhorRanking()</text>
<text text-anchor="start" x="17" y="-29.5" font-family="Helvetica,sans-Serif" font-size="10.00">+ getNMelhores()</text>
<text text-anchor="start" x="17" y="-18.5" font-family="Helvetica,sans-Serif" font-size="10.00">+ toString()</text>
<text text-anchor="start" x="17" y="-7.5" font-family="Helvetica,sans-Serif" font-size="10.00">&#45; setMaxIndividuos()</text>
</g>
<!-- Node2 -->
<g id="node2" class="node"><title>Node2</title>
<polygon fill="white" stroke="#bfbfbf" points="0,-238.5 0,-295.5 74,-295.5 74,-238.5 0,-238.5"/>
<text text-anchor="middle" x="37" y="-283.5" font-family="Helvetica,sans-Serif" font-size="10.00">Iterable&lt; S &gt;</text>
<polyline fill="none" stroke="#bfbfbf" points="0,-276.5 74,-276.5 "/>
<text text-anchor="middle" x="37" y="-264.5" font-family="Helvetica,sans-Serif" font-size="10.00"> </text>
<polyline fill="none" stroke="#bfbfbf" points="0,-257.5 74,-257.5 "/>
<text text-anchor="middle" x="37" y="-245.5" font-family="Helvetica,sans-Serif" font-size="10.00"> </text>
</g>
<!-- Node2&#45;&gt;Node1 -->
<g id="edge1" class="edge"><title>Node2&#45;&gt;Node1</title>
<path fill="none" stroke="midnightblue" d="M48.2485,-228.505C51.7636,-216.788 55.811,-203.297 59.9489,-189.504"/>
<polygon fill="none" stroke="midnightblue" points="44.8287,-227.724 45.3075,-238.308 51.5335,-229.736 44.8287,-227.724"/>
</g>
<!-- Node3 -->
<g id="node3" class="node"><title>Node3</title>
<polygon fill="white" stroke="#bfbfbf" points="92,-238.5 92,-295.5 188,-295.5 188,-238.5 92,-238.5"/>
<text text-anchor="middle" x="140" y="-283.5" font-family="Helvetica,sans-Serif" font-size="10.00">Ambiente&lt; G, S &gt;</text>
<polyline fill="none" stroke="#bfbfbf" points="92,-276.5 188,-276.5 "/>
<text text-anchor="middle" x="140" y="-264.5" font-family="Helvetica,sans-Serif" font-size="10.00"> </text>
<polyline fill="none" stroke="#bfbfbf" points="92,-257.5 188,-257.5 "/>
<text text-anchor="middle" x="140" y="-245.5" font-family="Helvetica,sans-Serif" font-size="10.00"> </text>
</g>
<!-- Node3&#45;&gt;Node1 -->
<g id="edge2" class="edge"><title>Node3&#45;&gt;Node1</title>
<path fill="none" stroke="#404040" d="M131.53,-238.308C128.269,-227.65 124.321,-214.742 120.149,-201.101"/>
<polygon fill="none" stroke="#404040" points="120.111,-200.979 114.531,-196.411 116.601,-189.504 122.181,-194.071 120.111,-200.979"/>
<text text-anchor="middle" x="148.5" y="-211.5" font-family="Helvetica,sans-Serif" font-size="10.00"> #ambiente</text>
</g>
</g>
</svg>
