<?xml version="1.0" encoding="UTF-8" standalone="no"?>
<!DOCTYPE svg PUBLIC "-//W3C//DTD SVG 1.1//EN"
 "http://www.w3.org/Graphics/SVG/1.1/DTD/svg11.dtd">
<!-- Generated by graphviz version 2.36.0 (20140111.2315)
 -->
<!-- Title: ic.populacional.algoritmo.operadores.Recombinador&lt; S extends Ser &gt; Pages: 1 -->
<svg width="280pt" height="284pt"
 viewBox="0.00 0.00 280.00 284.00" xmlns="http://www.w3.org/2000/svg" xmlns:xlink="http://www.w3.org/1999/xlink">
<g id="graph0" class="graph" transform="scale(1 1) rotate(0) translate(4 280)">
<title>ic.populacional.algoritmo.operadores.Recombinador&lt; S extends Ser &gt;</title>
<polygon fill="white" stroke="none" points="-4,4 -4,-280 276,-280 276,4 -4,4"/>
<!-- Node1 -->
<g id="node1" class="node"><title>Node1</title>
<polygon fill="#bfbfbf" stroke="black" points="64.5,-1 64.5,-157 257.5,-157 257.5,-1 64.5,-1"/>
<text text-anchor="start" x="72.5" y="-145" font-family="Helvetica,sans-Serif" font-size="10.00">ic.populacional.algoritmo.operadores.</text>
<text text-anchor="middle" x="161" y="-134" font-family="Helvetica,sans-Serif" font-size="10.00">Recombinador&lt; S extends Ser &gt;</text>
<polyline fill="none" stroke="black" points="64.5,-127 257.5,-127 "/>
<text text-anchor="start" x="72.5" y="-115" font-family="Helvetica,sans-Serif" font-size="10.00"># probabilidadeDeRecombinacao</text>
<polyline fill="none" stroke="black" points="64.5,-108 257.5,-108 "/>
<text text-anchor="start" x="72.5" y="-96" font-family="Helvetica,sans-Serif" font-size="10.00">+ Recombinador()</text>
<text text-anchor="start" x="72.5" y="-85" font-family="Helvetica,sans-Serif" font-size="10.00">+ reproduz()</text>
<text text-anchor="start" x="72.5" y="-74" font-family="Helvetica,sans-Serif" font-size="10.00">+ reproduz()</text>
<text text-anchor="start" x="72.5" y="-63" font-family="Helvetica,sans-Serif" font-size="10.00">+ setProbabilidadeDeRecombinacao()</text>
<text text-anchor="start" x="72.5" y="-52" font-family="Helvetica,sans-Serif" font-size="10.00">+ getProbabilidadeDeRecombinacao()</text>
<text text-anchor="start" x="72.5" y="-41" font-family="Helvetica,sans-Serif" font-size="10.00">+ crossoverCorteETroca()</text>
<text text-anchor="start" x="72.5" y="-30" font-family="Helvetica,sans-Serif" font-size="10.00">+ crossoverCorteETrocaSemRepeticao()</text>
<text text-anchor="start" x="72.5" y="-19" font-family="Helvetica,sans-Serif" font-size="10.00">+ crossoverCorteETroca()</text>
<text text-anchor="start" x="72.5" y="-8" font-family="Helvetica,sans-Serif" font-size="10.00">+ crossoverRealDiscreto()</text>
</g>
<!-- Node2 -->
<g id="node2" class="node"><title>Node2</title>
<g id="a_node2"><a xlink:href="classic_1_1populacional_1_1algoritmo_1_1operadores_1_1_operador.html" target="_top" xlink:title="{ic.populacional.algoritmo.operadores.\lOperador\n||}">
<polygon fill="white" stroke="black" points="0,-207 0,-275 178,-275 178,-207 0,-207"/>
<text text-anchor="start" x="8" y="-263" font-family="Helvetica,sans-Serif" font-size="10.00">ic.populacional.algoritmo.operadores.</text>
<text text-anchor="middle" x="89" y="-252" font-family="Helvetica,sans-Serif" font-size="10.00">Operador</text>
<polyline fill="none" stroke="black" points="0,-245 178,-245 "/>
<text text-anchor="middle" x="89" y="-233" font-family="Helvetica,sans-Serif" font-size="10.00"> </text>
<polyline fill="none" stroke="black" points="0,-226 178,-226 "/>
<text text-anchor="middle" x="89" y="-214" font-family="Helvetica,sans-Serif" font-size="10.00"> </text>
</a>
</g>
</g>
<!-- Node2&#45;&gt;Node1 -->
<g id="edge1" class="edge"><title>Node2&#45;&gt;Node1</title>
<path fill="none" stroke="midnightblue" d="M108.047,-197.672C113.644,-185.236 119.948,-171.226 126.204,-157.323"/>
<polygon fill="none" stroke="midnightblue" points="104.83,-196.292 103.918,-206.848 111.214,-199.165 104.83,-196.292"/>
</g>
<!-- Node3 -->
<g id="node3" class="node"><title>Node3</title>
<polygon fill="white" stroke="#bfbfbf" points="196,-212.5 196,-269.5 272,-269.5 272,-212.5 196,-212.5"/>
<text text-anchor="middle" x="234" y="-257.5" font-family="Helvetica,sans-Serif" font-size="10.00">Gerador&lt; S &gt;</text>
<polyline fill="none" stroke="#bfbfbf" points="196,-250.5 272,-250.5 "/>
<text text-anchor="middle" x="234" y="-238.5" font-family="Helvetica,sans-Serif" font-size="10.00"> </text>
<polyline fill="none" stroke="#bfbfbf" points="196,-231.5 272,-231.5 "/>
<text text-anchor="middle" x="234" y="-219.5" font-family="Helvetica,sans-Serif" font-size="10.00"> </text>
</g>
<!-- Node3&#45;&gt;Node1 -->
<g id="edge2" class="edge"><title>Node3&#45;&gt;Node1</title>
<path fill="none" stroke="#404040" d="M221.451,-212.495C215.721,-199.936 208.581,-184.287 201.237,-168.19"/>
<polygon fill="none" stroke="#404040" points="201.116,-167.925 194.986,-164.127 196.135,-157.008 202.264,-160.806 201.116,-167.925"/>
<text text-anchor="middle" x="228.5" y="-179.5" font-family="Helvetica,sans-Serif" font-size="10.00"> #gerador</text>
</g>
</g>
</svg>
