<?xml version="1.0" encoding="UTF-8" standalone="no"?>
<!DOCTYPE svg PUBLIC "-//W3C//DTD SVG 1.1//EN"
 "http://www.w3.org/Graphics/SVG/1.1/DTD/svg11.dtd">
<!-- Generated by graphviz version 2.36.0 (20140111.2315)
 -->
<!-- Title: ic.populacional.PopulacaoRanqueada&lt; G extends Number, T extends Ser&lt; G &gt; &gt; Pages: 1 -->
<svg width="257pt" height="306pt"
 viewBox="0.00 0.00 257.00 306.00" xmlns="http://www.w3.org/2000/svg" xmlns:xlink="http://www.w3.org/1999/xlink">
<g id="graph0" class="graph" transform="scale(1 1) rotate(0) translate(4 302)">
<title>ic.populacional.PopulacaoRanqueada&lt; G extends Number, T extends Ser&lt; G &gt; &gt;</title>
<polygon fill="white" stroke="none" points="-4,4 -4,-302 253,-302 253,4 -4,4"/>
<!-- Node1 -->
<g id="node1" class="node"><title>Node1</title>
<polygon fill="#bfbfbf" stroke="black" points="55.5,-1 55.5,-179 214.5,-179 214.5,-1 55.5,-1"/>
<text text-anchor="start" x="63.5" y="-167" font-family="Helvetica,sans-Serif" font-size="10.00">ic.populacional.Populacao</text>
<text text-anchor="start" x="63.5" y="-156" font-family="Helvetica,sans-Serif" font-size="10.00">Ranqueada&lt; G extends Number,</text>
<text text-anchor="middle" x="135" y="-145" font-family="Helvetica,sans-Serif" font-size="10.00"> T extends Ser&lt; G &gt; &gt;</text>
<polyline fill="none" stroke="black" points="55.5,-138 214.5,-138 "/>
<text text-anchor="middle" x="135" y="-126" font-family="Helvetica,sans-Serif" font-size="10.00"> </text>
<polyline fill="none" stroke="black" points="55.5,-119 214.5,-119 "/>
<text text-anchor="start" x="63.5" y="-107" font-family="Helvetica,sans-Serif" font-size="10.00">+ PopulacaoRanqueada()</text>
<text text-anchor="start" x="63.5" y="-96" font-family="Helvetica,sans-Serif" font-size="10.00">+ setIndividuos()</text>
<text text-anchor="start" x="63.5" y="-85" font-family="Helvetica,sans-Serif" font-size="10.00">+ addIndividuos()</text>
<text text-anchor="start" x="63.5" y="-74" font-family="Helvetica,sans-Serif" font-size="10.00">+ getIndividuo()</text>
<text text-anchor="start" x="63.5" y="-63" font-family="Helvetica,sans-Serif" font-size="10.00">+ getNIndividuos()</text>
<text text-anchor="start" x="63.5" y="-52" font-family="Helvetica,sans-Serif" font-size="10.00">+ toString()</text>
<text text-anchor="start" x="63.5" y="-41" font-family="Helvetica,sans-Serif" font-size="10.00">+ iterator()</text>
<text text-anchor="start" x="63.5" y="-30" font-family="Helvetica,sans-Serif" font-size="10.00">+ getMelhor()</text>
<text text-anchor="start" x="63.5" y="-19" font-family="Helvetica,sans-Serif" font-size="10.00">+ getMelhorRanking()</text>
<text text-anchor="start" x="63.5" y="-8" font-family="Helvetica,sans-Serif" font-size="10.00">+ getNMelhores()</text>
</g>
<!-- Node2 -->
<g id="node2" class="node"><title>Node2</title>
<polygon fill="white" stroke="#bfbfbf" points="0,-229 0,-297 136,-297 136,-229 0,-229"/>
<text text-anchor="start" x="8" y="-285" font-family="Helvetica,sans-Serif" font-size="10.00">ic::populacional::Populacao</text>
<text text-anchor="middle" x="68" y="-274" font-family="Helvetica,sans-Serif" font-size="10.00">&lt; G, T &gt;</text>
<polyline fill="none" stroke="#bfbfbf" points="0,-267 136,-267 "/>
<text text-anchor="middle" x="68" y="-255" font-family="Helvetica,sans-Serif" font-size="10.00"> </text>
<polyline fill="none" stroke="#bfbfbf" points="0,-248 136,-248 "/>
<text text-anchor="middle" x="68" y="-236" font-family="Helvetica,sans-Serif" font-size="10.00"> </text>
</g>
<!-- Node2&#45;&gt;Node1 -->
<g id="edge1" class="edge"><title>Node2&#45;&gt;Node1</title>
<path fill="none" stroke="midnightblue" d="M84.7732,-219.191C89.559,-206.976 94.9575,-193.198 100.395,-179.32"/>
<polygon fill="none" stroke="midnightblue" points="81.4667,-218.036 81.0773,-228.624 87.9843,-220.59 81.4667,-218.036"/>
</g>
<!-- Node3 -->
<g id="node3" class="node"><title>Node3</title>
<polygon fill="white" stroke="#bfbfbf" points="154.5,-234.5 154.5,-291.5 249.5,-291.5 249.5,-234.5 154.5,-234.5"/>
<text text-anchor="middle" x="202" y="-279.5" font-family="Helvetica,sans-Serif" font-size="10.00">TreeMultiset&lt; T &gt;</text>
<polyline fill="none" stroke="#bfbfbf" points="154.5,-272.5 249.5,-272.5 "/>
<text text-anchor="middle" x="202" y="-260.5" font-family="Helvetica,sans-Serif" font-size="10.00"> </text>
<polyline fill="none" stroke="#bfbfbf" points="154.5,-253.5 249.5,-253.5 "/>
<text text-anchor="middle" x="202" y="-241.5" font-family="Helvetica,sans-Serif" font-size="10.00"> </text>
</g>
<!-- Node3&#45;&gt;Node1 -->
<g id="edge2" class="edge"><title>Node3&#45;&gt;Node1</title>
<path fill="none" stroke="#404040" d="M191.086,-234.145C186.236,-221.765 180.202,-206.367 173.908,-190.302"/>
<polygon fill="none" stroke="#404040" points="173.897,-190.274 167.984,-186.147 169.519,-179.101 175.432,-183.229 173.897,-190.274"/>
<text text-anchor="middle" x="196.5" y="-201.5" font-family="Helvetica,sans-Serif" font-size="10.00"> &#45;seres</text>
</g>
</g>
</svg>
