<?xml version="1.0" encoding="UTF-8" standalone="no"?>
<!DOCTYPE svg PUBLIC "-//W3C//DTD SVG 1.1//EN"
 "http://www.w3.org/Graphics/SVG/1.1/DTD/svg11.dtd">
<!-- Generated by graphviz version 2.36.0 (20140111.2315)
 -->
<!-- Title: ic.populacional.algoritmo.operadores.Mutador&lt; T extends Ser &gt;.mutacaoUniforme Pages: 1 -->
<svg width="570pt" height="38pt"
 viewBox="0.00 0.00 570.00 38.00" xmlns="http://www.w3.org/2000/svg" xmlns:xlink="http://www.w3.org/1999/xlink">
<g id="graph0" class="graph" transform="scale(1 1) rotate(0) translate(4 34)">
<title>ic.populacional.algoritmo.operadores.Mutador&lt; T extends Ser &gt;.mutacaoUniforme</title>
<polygon fill="white" stroke="none" points="-4,4 -4,-34 566,-34 566,4 -4,4"/>
<!-- Node1 -->
<g id="node1" class="node"><title>Node1</title>
<polygon fill="#bfbfbf" stroke="black" points="0.5,-0 0.5,-30 211.5,-30 211.5,-0 0.5,-0"/>
<text text-anchor="start" x="8.5" y="-18" font-family="Helvetica,sans-Serif" font-size="10.00">ic.populacional.algoritmo.operadores.</text>
<text text-anchor="middle" x="106" y="-7" font-family="Helvetica,sans-Serif" font-size="10.00">Mutador&lt; T extends Ser &gt;.mutacaoUniforme</text>
</g>
<!-- Node2 -->
<g id="node2" class="node"><title>Node2</title>
<g id="a_node2"><a xlink:href="classic_1_1populacional_1_1utilidades_1_1_aleatorios.html#a92ad4ea348ed7dd0fd3e400f2389abe4" target="_top" xlink:title="ic.populacional.utilidades.\lAleatorios.sorteioUniforme">
<polygon fill="white" stroke="black" points="248.5,-0 248.5,-30 379.5,-30 379.5,-0 248.5,-0"/>
<text text-anchor="start" x="256.5" y="-18" font-family="Helvetica,sans-Serif" font-size="10.00">ic.populacional.utilidades.</text>
<text text-anchor="middle" x="314" y="-7" font-family="Helvetica,sans-Serif" font-size="10.00">Aleatorios.sorteioUniforme</text>
</a>
</g>
</g>
<!-- Node1&#45;&gt;Node2 -->
<g id="edge1" class="edge"><title>Node1&#45;&gt;Node2</title>
<path fill="none" stroke="midnightblue" d="M211.509,-15C220.528,-15 229.532,-15 238.244,-15"/>
<polygon fill="midnightblue" stroke="midnightblue" points="238.32,-18.5001 248.32,-15 238.32,-11.5001 238.32,-18.5001"/>
</g>
<!-- Node3 -->
<g id="node3" class="node"><title>Node3</title>
<g id="a_node3"><a xlink:href="classic_1_1populacional_1_1utilidades_1_1_aleatorios.html#ade30e7f2fcb5a65542f45463a7920406" target="_top" xlink:title="Retorna um numero de ponto flutuante entre [0&#45;1]. ">
<polygon fill="white" stroke="black" points="416,-0 416,-30 562,-30 562,-0 416,-0"/>
<text text-anchor="start" x="424" y="-18" font-family="Helvetica,sans-Serif" font-size="10.00">ic.populacional.utilidades.</text>
<text text-anchor="middle" x="489" y="-7" font-family="Helvetica,sans-Serif" font-size="10.00">Aleatorios.getUniformeDouble</text>
</a>
</g>
</g>
<!-- Node2&#45;&gt;Node3 -->
<g id="edge2" class="edge"><title>Node2&#45;&gt;Node3</title>
<path fill="none" stroke="midnightblue" d="M379.911,-15C388.318,-15 397.016,-15 405.659,-15"/>
<polygon fill="midnightblue" stroke="midnightblue" points="405.758,-18.5001 415.758,-15 405.758,-11.5001 405.758,-18.5001"/>
</g>
</g>
</svg>
