<?xml version="1.0" encoding="UTF-8" standalone="no"?>
<!DOCTYPE svg PUBLIC "-//W3C//DTD SVG 1.1//EN"
 "http://www.w3.org/Graphics/SVG/1.1/DTD/svg11.dtd">
<!-- Generated by graphviz version 2.36.0 (20140111.2315)
 -->
<!-- Title: ic.populacional.algoritmo.operadores.recombinador.PMX&lt; S extends Ser &gt; Pages: 1 -->
<svg width="246pt" height="294pt"
 viewBox="0.00 0.00 246.00 294.00" xmlns="http://www.w3.org/2000/svg" xmlns:xlink="http://www.w3.org/1999/xlink">
<g id="graph0" class="graph" transform="scale(1 1) rotate(0) translate(4 290)">
<title>ic.populacional.algoritmo.operadores.recombinador.PMX&lt; S extends Ser &gt;</title>
<polygon fill="white" stroke="none" points="-4,4 -4,-290 242,-290 242,4 -4,4"/>
<!-- Node1 -->
<g id="node1" class="node"><title>Node1</title>
<polygon fill="#bfbfbf" stroke="black" points="-0.5,-1 -0.5,-179 238.5,-179 238.5,-1 -0.5,-1"/>
<text text-anchor="start" x="7.5" y="-167" font-family="Helvetica,sans-Serif" font-size="10.00">ic.populacional.algoritmo.operadores.recombinador.</text>
<text text-anchor="middle" x="119" y="-156" font-family="Helvetica,sans-Serif" font-size="10.00">PMX&lt; S extends Ser &gt;</text>
<polyline fill="none" stroke="black" points="-0.5,-149 238.5,-149 "/>
<text text-anchor="start" x="7.5" y="-137" font-family="Helvetica,sans-Serif" font-size="10.00">&#45; limitado</text>
<text text-anchor="start" x="7.5" y="-126" font-family="Helvetica,sans-Serif" font-size="10.00">&#45; fixado</text>
<text text-anchor="start" x="7.5" y="-115" font-family="Helvetica,sans-Serif" font-size="10.00">&#45; limitesAtivos</text>
<text text-anchor="start" x="7.5" y="-104" font-family="Helvetica,sans-Serif" font-size="10.00">&#45; limiteInferiorCross</text>
<text text-anchor="start" x="7.5" y="-93" font-family="Helvetica,sans-Serif" font-size="10.00">&#45; limiteSuperiorCross</text>
<polyline fill="none" stroke="black" points="-0.5,-86 238.5,-86 "/>
<text text-anchor="start" x="7.5" y="-74" font-family="Helvetica,sans-Serif" font-size="10.00">+ PMX()</text>
<text text-anchor="start" x="7.5" y="-63" font-family="Helvetica,sans-Serif" font-size="10.00">+ reproduz()</text>
<text text-anchor="start" x="7.5" y="-52" font-family="Helvetica,sans-Serif" font-size="10.00">+ setLimites()</text>
<text text-anchor="start" x="7.5" y="-41" font-family="Helvetica,sans-Serif" font-size="10.00">+ desativaLimites()</text>
<text text-anchor="start" x="7.5" y="-30" font-family="Helvetica,sans-Serif" font-size="10.00">+ ativaLimites()</text>
<text text-anchor="start" x="7.5" y="-19" font-family="Helvetica,sans-Serif" font-size="10.00">&#45; posicoesDeCrossover()</text>
<text text-anchor="start" x="7.5" y="-8" font-family="Helvetica,sans-Serif" font-size="10.00">&#45; pmxParcial()</text>
</g>
<!-- Node2 -->
<g id="node2" class="node"><title>Node2</title>
<polygon fill="white" stroke="#bfbfbf" points="37,-217 37,-285 201,-285 201,-217 37,-217"/>
<text text-anchor="start" x="45" y="-273" font-family="Helvetica,sans-Serif" font-size="10.00">ic::populacional::algoritmo</text>
<text text-anchor="middle" x="119" y="-262" font-family="Helvetica,sans-Serif" font-size="10.00">::operadores::Recombinador&lt; S &gt;</text>
<polyline fill="none" stroke="#bfbfbf" points="37,-255 201,-255 "/>
<text text-anchor="middle" x="119" y="-243" font-family="Helvetica,sans-Serif" font-size="10.00"> </text>
<polyline fill="none" stroke="#bfbfbf" points="37,-236 201,-236 "/>
<text text-anchor="middle" x="119" y="-224" font-family="Helvetica,sans-Serif" font-size="10.00"> </text>
</g>
<!-- Node2&#45;&gt;Node1 -->
<g id="edge1" class="edge"><title>Node2&#45;&gt;Node1</title>
<path fill="none" stroke="midnightblue" d="M119,-206.609C119,-198.044 119,-188.769 119,-179.325"/>
<polygon fill="none" stroke="midnightblue" points="115.5,-206.668 119,-216.668 122.5,-206.668 115.5,-206.668"/>
</g>
</g>
</svg>
