<?xml version="1.0" encoding="UTF-8" standalone="no"?>
<!DOCTYPE svg PUBLIC "-//W3C//DTD SVG 1.1//EN"
 "http://www.w3.org/Graphics/SVG/1.1/DTD/svg11.dtd">
<!-- Generated by graphviz version 2.36.0 (20140111.2315)
 -->
<!-- Title: ic.populacional.utilidades.Aleatorios.sorteioUniforme Pages: 1 -->
<svg width="388pt" height="87pt"
 viewBox="0.00 0.00 388.00 87.00" xmlns="http://www.w3.org/2000/svg" xmlns:xlink="http://www.w3.org/1999/xlink">
<g id="graph0" class="graph" transform="scale(1 1) rotate(0) translate(4 83)">
<title>ic.populacional.utilidades.Aleatorios.sorteioUniforme</title>
<polygon fill="white" stroke="none" points="-4,4 -4,-83 384,-83 384,4 -4,4"/>
<!-- Node1 -->
<g id="node1" class="node"><title>Node1</title>
<polygon fill="#bfbfbf" stroke="black" points="0.5,-24 0.5,-54 131.5,-54 131.5,-24 0.5,-24"/>
<text text-anchor="start" x="8.5" y="-42" font-family="Helvetica,sans-Serif" font-size="10.00">ic.populacional.utilidades.</text>
<text text-anchor="middle" x="66" y="-31" font-family="Helvetica,sans-Serif" font-size="10.00">Aleatorios.sorteioUniforme</text>
</g>
<!-- Node2 -->
<g id="node2" class="node"><title>Node2</title>
<g id="a_node2"><a xlink:href="classic_1_1populacional_1_1algoritmo_1_1operadores_1_1_mutador_3_01_t_01extends_01_ser_01_4.html#aebd2c6138299aa0bb03788702683133b" target="_top" xlink:title="bit&#45;flipping ">
<polygon fill="white" stroke="black" points="184.5,-49 184.5,-79 363.5,-79 363.5,-49 184.5,-49"/>
<text text-anchor="start" x="192.5" y="-67" font-family="Helvetica,sans-Serif" font-size="10.00">ic.populacional.algoritmo.operadores.</text>
<text text-anchor="middle" x="274" y="-56" font-family="Helvetica,sans-Serif" font-size="10.00">Mutador&lt; T extends Ser &gt;.bitFlipping</text>
</a>
</g>
</g>
<!-- Node1&#45;&gt;Node2 -->
<g id="edge1" class="edge"><title>Node1&#45;&gt;Node2</title>
<path fill="none" stroke="midnightblue" d="M141.597,-48.053C155.51,-49.7415 170.173,-51.5211 184.458,-53.2546"/>
<polygon fill="midnightblue" stroke="midnightblue" points="141.963,-44.5719 131.614,-46.8416 141.12,-51.5209 141.963,-44.5719"/>
</g>
<!-- Node3 -->
<g id="node3" class="node"><title>Node3</title>
<g id="a_node3"><a xlink:href="classic_1_1populacional_1_1algoritmo_1_1operadores_1_1_mutador_3_01_t_01extends_01_ser_01_4.html#a5df9cb67362f75c21821a6c597151b86" target="_top" xlink:title="Mutação Uniforme. ">
<polygon fill="white" stroke="black" points="168.5,-0 168.5,-30 379.5,-30 379.5,-0 168.5,-0"/>
<text text-anchor="start" x="176.5" y="-18" font-family="Helvetica,sans-Serif" font-size="10.00">ic.populacional.algoritmo.operadores.</text>
<text text-anchor="middle" x="274" y="-7" font-family="Helvetica,sans-Serif" font-size="10.00">Mutador&lt; T extends Ser &gt;.mutacaoUniforme</text>
</a>
</g>
</g>
<!-- Node1&#45;&gt;Node3 -->
<g id="edge2" class="edge"><title>Node1&#45;&gt;Node3</title>
<path fill="none" stroke="midnightblue" d="M141.637,-30.3045C150.302,-29.2949 159.257,-28.2516 168.231,-27.2061"/>
<polygon fill="midnightblue" stroke="midnightblue" points="141.142,-26.8383 131.614,-31.4721 141.952,-33.7913 141.142,-26.8383"/>
</g>
</g>
</svg>
