<?xml version="1.0" encoding="UTF-8" standalone="no"?>
<!DOCTYPE svg PUBLIC "-//W3C//DTD SVG 1.1//EN"
 "http://www.w3.org/Graphics/SVG/1.1/DTD/svg11.dtd">
<!-- Generated by graphviz version 2.36.0 (20140111.2315)
 -->
<!-- Title: ic.populacional.algoritmo.ProgramacaoEvolucionaria&lt; G extends Number, S extends Ser&lt; G &gt; &gt; Pages: 1 -->
<svg width="166pt" height="228pt"
 viewBox="0.00 0.00 166.00 228.00" xmlns="http://www.w3.org/2000/svg" xmlns:xlink="http://www.w3.org/1999/xlink">
<g id="graph0" class="graph" transform="scale(1 1) rotate(0) translate(4 224)">
<title>ic.populacional.algoritmo.ProgramacaoEvolucionaria&lt; G extends Number, S extends Ser&lt; G &gt; &gt;</title>
<polygon fill="white" stroke="none" points="-4,4 -4,-224 162,-224 162,4 -4,4"/>
<!-- Node1 -->
<g id="node1" class="node"><title>Node1</title>
<polygon fill="#bfbfbf" stroke="black" points="0,-1 0,-113 158,-113 158,-1 0,-1"/>
<text text-anchor="start" x="8" y="-101" font-family="Helvetica,sans-Serif" font-size="10.00">ic.populacional.algoritmo.</text>
<text text-anchor="start" x="8" y="-90" font-family="Helvetica,sans-Serif" font-size="10.00">ProgramacaoEvolucionaria</text>
<text text-anchor="start" x="8" y="-79" font-family="Helvetica,sans-Serif" font-size="10.00">&lt; G extends Number, S extends</text>
<text text-anchor="middle" x="79" y="-68" font-family="Helvetica,sans-Serif" font-size="10.00"> Ser&lt; G &gt; &gt;</text>
<polyline fill="none" stroke="black" points="0,-61 158,-61 "/>
<text text-anchor="middle" x="79" y="-49" font-family="Helvetica,sans-Serif" font-size="10.00"> </text>
<polyline fill="none" stroke="black" points="0,-42 158,-42 "/>
<text text-anchor="start" x="8" y="-30" font-family="Helvetica,sans-Serif" font-size="10.00">+ terminou()</text>
<text text-anchor="start" x="8" y="-19" font-family="Helvetica,sans-Serif" font-size="10.00">+ iteracao()</text>
<text text-anchor="start" x="8" y="-8" font-family="Helvetica,sans-Serif" font-size="10.00">~ [instance initializer]()</text>
</g>
<!-- Node2 -->
<g id="node2" class="node"><title>Node2</title>
<polygon fill="white" stroke="#bfbfbf" points="21,-151 21,-219 137,-219 137,-151 21,-151"/>
<text text-anchor="start" x="29" y="-207" font-family="Helvetica,sans-Serif" font-size="10.00">AlgoritmoEvolucionario</text>
<text text-anchor="middle" x="79" y="-196" font-family="Helvetica,sans-Serif" font-size="10.00">&lt; G, S &gt;</text>
<polyline fill="none" stroke="#bfbfbf" points="21,-189 137,-189 "/>
<text text-anchor="middle" x="79" y="-177" font-family="Helvetica,sans-Serif" font-size="10.00"> </text>
<polyline fill="none" stroke="#bfbfbf" points="21,-170 137,-170 "/>
<text text-anchor="middle" x="79" y="-158" font-family="Helvetica,sans-Serif" font-size="10.00"> </text>
</g>
<!-- Node2&#45;&gt;Node1 -->
<g id="edge1" class="edge"><title>Node2&#45;&gt;Node1</title>
<path fill="none" stroke="midnightblue" d="M79,-140.811C79,-131.952 79,-122.511 79,-113.294"/>
<polygon fill="none" stroke="midnightblue" points="75.5001,-140.895 79,-150.895 82.5001,-140.895 75.5001,-140.895"/>
</g>
</g>
</svg>
