<?xml version="1.0" encoding="UTF-8" standalone="no"?>
<!DOCTYPE svg PUBLIC "-//W3C//DTD SVG 1.1//EN"
 "http://www.w3.org/Graphics/SVG/1.1/DTD/svg11.dtd">
<!-- Generated by graphviz version 2.36.0 (20140111.2315)
 -->
<!-- Title: ic.populacional.seres.permutacao.LocusPermutacao Pages: 1 -->
<svg width="172pt" height="376pt"
 viewBox="0.00 0.00 172.00 376.00" xmlns="http://www.w3.org/2000/svg" xmlns:xlink="http://www.w3.org/1999/xlink">
<g id="graph0" class="graph" transform="scale(1 1) rotate(0) translate(4 372)">
<title>ic.populacional.seres.permutacao.LocusPermutacao</title>
<polygon fill="white" stroke="none" points="-4,4 -4,-372 168,-372 168,4 -4,4"/>
<!-- Node1 -->
<g id="node1" class="node"><title>Node1</title>
<polygon fill="#bfbfbf" stroke="black" points="-0.5,-1 -0.5,-135 164.5,-135 164.5,-1 -0.5,-1"/>
<text text-anchor="start" x="7.5" y="-123" font-family="Helvetica,sans-Serif" font-size="10.00">ic.populacional.seres.permutacao.</text>
<text text-anchor="middle" x="82" y="-112" font-family="Helvetica,sans-Serif" font-size="10.00">LocusPermutacao</text>
<polyline fill="none" stroke="black" points="-0.5,-105 164.5,-105 "/>
<text text-anchor="start" x="7.5" y="-93" font-family="Helvetica,sans-Serif" font-size="10.00">~ locus</text>
<polyline fill="none" stroke="black" points="-0.5,-86 164.5,-86 "/>
<text text-anchor="start" x="7.5" y="-74" font-family="Helvetica,sans-Serif" font-size="10.00">+ LocusPermutacao()</text>
<text text-anchor="start" x="7.5" y="-63" font-family="Helvetica,sans-Serif" font-size="10.00">+ getRepresentacaoNumerica()</text>
<text text-anchor="start" x="7.5" y="-52" font-family="Helvetica,sans-Serif" font-size="10.00">+ setRepresentacaoNumerica()</text>
<text text-anchor="start" x="7.5" y="-41" font-family="Helvetica,sans-Serif" font-size="10.00">+ copia()</text>
<text text-anchor="start" x="7.5" y="-30" font-family="Helvetica,sans-Serif" font-size="10.00">+ equals()</text>
<text text-anchor="start" x="7.5" y="-19" font-family="Helvetica,sans-Serif" font-size="10.00">+ toString()</text>
<text text-anchor="start" x="7.5" y="-8" font-family="Helvetica,sans-Serif" font-size="10.00">+ compareTo()</text>
</g>
<!-- Node2 -->
<g id="node2" class="node"><title>Node2</title>
<g id="a_node2"><a xlink:href="classic_1_1populacional_1_1_caracteristica.html" target="_top" xlink:title="{ic.populacional.Caracteristica\n||+ getRepresentacaoNumerica()\l+ setRepresentacaoNumerica()\l+ copia()\l+ equals()\l+ toString()\l}">
<polygon fill="white" stroke="black" points="6,-172.5 6,-273.5 158,-273.5 158,-172.5 6,-172.5"/>
<text text-anchor="middle" x="82" y="-261.5" font-family="Helvetica,sans-Serif" font-size="10.00">ic.populacional.Caracteristica</text>
<polyline fill="none" stroke="black" points="6,-254.5 158,-254.5 "/>
<text text-anchor="middle" x="82" y="-242.5" font-family="Helvetica,sans-Serif" font-size="10.00"> </text>
<polyline fill="none" stroke="black" points="6,-235.5 158,-235.5 "/>
<text text-anchor="start" x="14" y="-223.5" font-family="Helvetica,sans-Serif" font-size="10.00">+ getRepresentacaoNumerica()</text>
<text text-anchor="start" x="14" y="-212.5" font-family="Helvetica,sans-Serif" font-size="10.00">+ setRepresentacaoNumerica()</text>
<text text-anchor="start" x="14" y="-201.5" font-family="Helvetica,sans-Serif" font-size="10.00">+ copia()</text>
<text text-anchor="start" x="14" y="-190.5" font-family="Helvetica,sans-Serif" font-size="10.00">+ equals()</text>
<text text-anchor="start" x="14" y="-179.5" font-family="Helvetica,sans-Serif" font-size="10.00">+ toString()</text>
</a>
</g>
</g>
<!-- Node2&#45;&gt;Node1 -->
<g id="edge1" class="edge"><title>Node2&#45;&gt;Node1</title>
<path fill="none" stroke="midnightblue" d="M82,-162.109C82,-153.258 82,-144.096 82,-135.128"/>
<polygon fill="none" stroke="midnightblue" points="78.5001,-162.325 82,-172.325 85.5001,-162.325 78.5001,-162.325"/>
</g>
<!-- Node3 -->
<g id="node3" class="node"><title>Node3</title>
<polygon fill="white" stroke="#bfbfbf" points="24.5,-310.5 24.5,-367.5 139.5,-367.5 139.5,-310.5 24.5,-310.5"/>
<text text-anchor="middle" x="82" y="-355.5" font-family="Helvetica,sans-Serif" font-size="10.00">Comparable&lt; Object &gt;</text>
<polyline fill="none" stroke="#bfbfbf" points="24.5,-348.5 139.5,-348.5 "/>
<text text-anchor="middle" x="82" y="-336.5" font-family="Helvetica,sans-Serif" font-size="10.00"> </text>
<polyline fill="none" stroke="#bfbfbf" points="24.5,-329.5 139.5,-329.5 "/>
<text text-anchor="middle" x="82" y="-317.5" font-family="Helvetica,sans-Serif" font-size="10.00"> </text>
</g>
<!-- Node3&#45;&gt;Node2 -->
<g id="edge2" class="edge"><title>Node3&#45;&gt;Node2</title>
<path fill="none" stroke="midnightblue" d="M82,-300.354C82,-291.796 82,-282.578 82,-273.608"/>
<polygon fill="none" stroke="midnightblue" points="78.5001,-300.404 82,-310.404 85.5001,-300.404 78.5001,-300.404"/>
</g>
</g>
</svg>
