<?xml version="1.0" encoding="UTF-8" standalone="no"?>
<!DOCTYPE svg PUBLIC "-//W3C//DTD SVG 1.1//EN"
 "http://www.w3.org/Graphics/SVG/1.1/DTD/svg11.dtd">
<!-- Generated by graphviz version 2.36.0 (20140111.2315)
 -->
<!-- Title: Gráfico de Hierarquia de Classes Pages: 1 -->
<svg width="252pt" height="99pt"
 viewBox="0.00 0.00 252.00 99.00" xmlns="http://www.w3.org/2000/svg" xmlns:xlink="http://www.w3.org/1999/xlink">
<g id="graph0" class="graph" transform="scale(1 1) rotate(0) translate(4 95)">
<title>Gráfico de Hierarquia de Classes</title>
<polygon fill="white" stroke="none" points="-4,4 -4,-95 248,-95 248,4 -4,4"/>
<!-- Node1 -->
<g id="node1" class="node"><title>Node1</title>
<polygon fill="white" stroke="#bfbfbf" points="0.5,-32.5 0.5,-51.5 49.5,-51.5 49.5,-32.5 0.5,-32.5"/>
<text text-anchor="middle" x="25" y="-39.5" font-family="Helvetica,sans-Serif" font-size="10.00">Iterable</text>
</g>
<!-- Node2 -->
<g id="node2" class="node"><title>Node2</title>
<g id="a_node2"><a xlink:href="classic_1_1populacional_1_1_populacao_3_01_g_01extends_01_number_00_01_s_01extends_01_ser_3_01_g_01_4_01_4.html" target="_top" xlink:title="ic.populacional.Populacao\l\&lt; G extends Number, S extends\l Ser\&lt; G \&gt; \&gt;">
<polygon fill="white" stroke="black" points="86,-49.5 86,-90.5 244,-90.5 244,-49.5 86,-49.5"/>
<text text-anchor="start" x="94" y="-78.5" font-family="Helvetica,sans-Serif" font-size="10.00">ic.populacional.Populacao</text>
<text text-anchor="start" x="94" y="-67.5" font-family="Helvetica,sans-Serif" font-size="10.00">&lt; G extends Number, S extends</text>
<text text-anchor="middle" x="165" y="-56.5" font-family="Helvetica,sans-Serif" font-size="10.00"> Ser&lt; G &gt; &gt;</text>
</a>
</g>
</g>
<!-- Node1&#45;&gt;Node2 -->
<g id="edge1" class="edge"><title>Node1&#45;&gt;Node2</title>
<path fill="none" stroke="midnightblue" d="M59.7808,-48.8541C67.8598,-50.4933 76.8189,-52.3111 85.9941,-54.1727"/>
<polygon fill="midnightblue" stroke="midnightblue" points="60.2193,-45.3718 49.723,-46.8134 58.8274,-52.232 60.2193,-45.3718"/>
</g>
<!-- Node3 -->
<g id="node3" class="node"><title>Node3</title>
<g id="a_node3"><a xlink:href="classic_1_1populacional_1_1_ser_3_01_n_01extends_01_number_01_4.html" target="_top" xlink:title="Abstração do conceito: “ser vivo”. ">
<polygon fill="white" stroke="black" points="107,-0 107,-30 223,-30 223,-0 107,-0"/>
<text text-anchor="start" x="115" y="-18" font-family="Helvetica,sans-Serif" font-size="10.00">ic.populacional.Ser</text>
<text text-anchor="middle" x="165" y="-7" font-family="Helvetica,sans-Serif" font-size="10.00">&lt; N extends Number &gt;</text>
</a>
</g>
</g>
<!-- Node1&#45;&gt;Node3 -->
<g id="edge2" class="edge"><title>Node1&#45;&gt;Node3</title>
<path fill="none" stroke="midnightblue" d="M59.9394,-35.3597C74.0553,-32.5979 90.8373,-29.3144 106.759,-26.1994"/>
<polygon fill="midnightblue" stroke="midnightblue" points="58.8649,-32.0035 49.723,-37.3585 60.209,-38.8732 58.8649,-32.0035"/>
</g>
</g>
</svg>
