<?xml version="1.0" encoding="UTF-8" standalone="no"?>
<!DOCTYPE svg PUBLIC "-//W3C//DTD SVG 1.1//EN"
 "http://www.w3.org/Graphics/SVG/1.1/DTD/svg11.dtd">
<!-- Generated by graphviz version 2.36.0 (20140111.2315)
 -->
<!-- Title: Gráfico de Hierarquia de Classes Pages: 1 -->
<svg width="458pt" height="87pt"
 viewBox="0.00 0.00 458.00 87.00" xmlns="http://www.w3.org/2000/svg" xmlns:xlink="http://www.w3.org/1999/xlink">
<g id="graph0" class="graph" transform="scale(1 1) rotate(0) translate(4 83)">
<title>Gráfico de Hierarquia de Classes</title>
<polygon fill="white" stroke="none" points="-4,4 -4,-83 454,-83 454,4 -4,4"/>
<!-- Node1 -->
<g id="node1" class="node"><title>Node1</title>
<polygon fill="white" stroke="#bfbfbf" points="0,-29.5 0,-48.5 68,-48.5 68,-29.5 0,-29.5"/>
<text text-anchor="middle" x="34" y="-36.5" font-family="Helvetica,sans-Serif" font-size="10.00">Comparable</text>
</g>
<!-- Node2 -->
<g id="node2" class="node"><title>Node2</title>
<g id="a_node2"><a xlink:href="classic_1_1populacional_1_1_caracteristica.html" target="_top" xlink:title="ic.populacional.Caracteristica">
<polygon fill="white" stroke="black" points="104,-29.5 104,-48.5 248,-48.5 248,-29.5 104,-29.5"/>
<text text-anchor="middle" x="176" y="-36.5" font-family="Helvetica,sans-Serif" font-size="10.00">ic.populacional.Caracteristica</text>
</a>
</g>
</g>
<!-- Node1&#45;&gt;Node2 -->
<g id="edge1" class="edge"><title>Node1&#45;&gt;Node2</title>
<path fill="none" stroke="midnightblue" d="M78.4152,-39C86.4784,-39 95.0943,-39 103.736,-39"/>
<polygon fill="midnightblue" stroke="midnightblue" points="78.1781,-35.5001 68.178,-39 78.178,-42.5001 78.1781,-35.5001"/>
</g>
<!-- Node3 -->
<g id="node3" class="node"><title>Node3</title>
<g id="a_node3"><a xlink:href="classic_1_1populacional_1_1_caracteristica_binaria.html" target="_top" xlink:title="ic.populacional.Caracteristica\lBinaria">
<polygon fill="white" stroke="black" points="295,-49 295,-79 439,-79 439,-49 295,-49"/>
<text text-anchor="start" x="303" y="-67" font-family="Helvetica,sans-Serif" font-size="10.00">ic.populacional.Caracteristica</text>
<text text-anchor="middle" x="367" y="-56" font-family="Helvetica,sans-Serif" font-size="10.00">Binaria</text>
</a>
</g>
</g>
<!-- Node2&#45;&gt;Node3 -->
<g id="edge2" class="edge"><title>Node2&#45;&gt;Node3</title>
<path fill="none" stroke="midnightblue" d="M258.316,-49.756C270.483,-51.3654 282.947,-53.0142 294.881,-54.5927"/>
<polygon fill="midnightblue" stroke="midnightblue" points="258.556,-46.2574 248.183,-48.4158 257.638,-53.197 258.556,-46.2574"/>
</g>
<!-- Node4 -->
<g id="node4" class="node"><title>Node4</title>
<g id="a_node4"><a xlink:href="classic_1_1populacional_1_1seres_1_1permutacao_1_1_locus_permutacao.html" target="_top" xlink:title="ic.populacional.seres.permutacao.\lLocusPermutacao">
<polygon fill="white" stroke="black" points="284.5,-0 284.5,-30 449.5,-30 449.5,-0 284.5,-0"/>
<text text-anchor="start" x="292.5" y="-18" font-family="Helvetica,sans-Serif" font-size="10.00">ic.populacional.seres.permutacao.</text>
<text text-anchor="middle" x="367" y="-7" font-family="Helvetica,sans-Serif" font-size="10.00">LocusPermutacao</text>
</a>
</g>
</g>
<!-- Node2&#45;&gt;Node4 -->
<g id="edge3" class="edge"><title>Node2&#45;&gt;Node4</title>
<path fill="none" stroke="midnightblue" d="M258.266,-28.6806C266.929,-27.5805 275.743,-26.4612 284.41,-25.3607"/>
<polygon fill="midnightblue" stroke="midnightblue" points="257.663,-25.2289 248.183,-29.9608 258.545,-32.1731 257.663,-25.2289"/>
</g>
</g>
</svg>
