<?xml version="1.0" encoding="UTF-8" standalone="no"?>
<!DOCTYPE svg PUBLIC "-//W3C//DTD SVG 1.1//EN"
 "http://www.w3.org/Graphics/SVG/1.1/DTD/svg11.dtd">
<!-- Generated by graphviz version 2.36.0 (20140111.2315)
 -->
<!-- Title: Gráfico de Hierarquia de Classes Pages: 1 -->
<svg width="266pt" height="50pt"
 viewBox="0.00 0.00 266.00 50.00" xmlns="http://www.w3.org/2000/svg" xmlns:xlink="http://www.w3.org/1999/xlink">
<g id="graph0" class="graph" transform="scale(1 1) rotate(0) translate(4 46)">
<title>Gráfico de Hierarquia de Classes</title>
<polygon fill="white" stroke="none" points="-4,4 -4,-46 262,-46 262,4 -4,4"/>
<!-- Node1 -->
<g id="node1" class="node"><title>Node1</title>
<polygon fill="white" stroke="#bfbfbf" points="0,-11.5 0,-30.5 62,-30.5 62,-11.5 0,-11.5"/>
<text text-anchor="middle" x="31" y="-18.5" font-family="Helvetica,sans-Serif" font-size="10.00">Populacao</text>
</g>
<!-- Node2 -->
<g id="node2" class="node"><title>Node2</title>
<g id="a_node2"><a xlink:href="classic_1_1populacional_1_1_populacao_ranqueada_3_01_g_01extends_01_number_00_01_t_01extends_01_ser_3_01_g_01_4_01_4.html" target="_top" xlink:title="ic.populacional.Populacao\lRanqueada\&lt; G extends Number,\l T extends Ser\&lt; G \&gt; \&gt;">
<polygon fill="white" stroke="black" points="98.5,-0.5 98.5,-41.5 257.5,-41.5 257.5,-0.5 98.5,-0.5"/>
<text text-anchor="start" x="106.5" y="-29.5" font-family="Helvetica,sans-Serif" font-size="10.00">ic.populacional.Populacao</text>
<text text-anchor="start" x="106.5" y="-18.5" font-family="Helvetica,sans-Serif" font-size="10.00">Ranqueada&lt; G extends Number,</text>
<text text-anchor="middle" x="178" y="-7.5" font-family="Helvetica,sans-Serif" font-size="10.00"> T extends Ser&lt; G &gt; &gt;</text>
</a>
</g>
</g>
<!-- Node1&#45;&gt;Node2 -->
<g id="edge1" class="edge"><title>Node1&#45;&gt;Node2</title>
<path fill="none" stroke="midnightblue" d="M72.3095,-21C80.4514,-21 89.2729,-21 98.2229,-21"/>
<polygon fill="midnightblue" stroke="midnightblue" points="72.0441,-17.5001 62.0441,-21 72.0441,-24.5001 72.0441,-17.5001"/>
</g>
</g>
</svg>
