<?xml version="1.0" encoding="UTF-8" standalone="no"?>
<!DOCTYPE svg PUBLIC "-//W3C//DTD SVG 1.1//EN"
 "http://www.w3.org/Graphics/SVG/1.1/DTD/svg11.dtd">
<!-- Generated by graphviz version 2.36.0 (20140111.2315)
 -->
<!-- Title: Gráfico de Hierarquia de Classes Pages: 1 -->
<svg width="400pt" height="197pt"
 viewBox="0.00 0.00 400.00 197.00" xmlns="http://www.w3.org/2000/svg" xmlns:xlink="http://www.w3.org/1999/xlink">
<g id="graph0" class="graph" transform="scale(1 1) rotate(0) translate(4 193)">
<title>Gráfico de Hierarquia de Classes</title>
<polygon fill="white" stroke="none" points="-4,4 -4,-193 396,-193 396,4 -4,4"/>
<!-- Node1 -->
<g id="node1" class="node"><title>Node1</title>
<g id="a_node1"><a xlink:href="classic_1_1populacional_1_1algoritmo_1_1operadores_1_1_operador.html" target="_top" xlink:title="ic.populacional.algoritmo.operadores.\lOperador">
<polygon fill="white" stroke="black" points="0,-85 0,-115 178,-115 178,-85 0,-85"/>
<text text-anchor="start" x="8" y="-103" font-family="Helvetica,sans-Serif" font-size="10.00">ic.populacional.algoritmo.operadores.</text>
<text text-anchor="middle" x="89" y="-92" font-family="Helvetica,sans-Serif" font-size="10.00">Operador</text>
</a>
</g>
</g>
<!-- Node2 -->
<g id="node2" class="node"><title>Node2</title>
<g id="a_node2"><a xlink:href="classic_1_1populacional_1_1algoritmo_1_1operadores_1_1_gerador_3_01_t_01extends_01_ser_01_4.html" target="_top" xlink:title="ic.populacional.algoritmo.operadores.\lGerador\&lt; T extends Ser \&gt;">
<polygon fill="white" stroke="black" points="214,-159 214,-189 392,-189 392,-159 214,-159"/>
<text text-anchor="start" x="222" y="-177" font-family="Helvetica,sans-Serif" font-size="10.00">ic.populacional.algoritmo.operadores.</text>
<text text-anchor="middle" x="303" y="-166" font-family="Helvetica,sans-Serif" font-size="10.00">Gerador&lt; T extends Ser &gt;</text>
</a>
</g>
</g>
<!-- Node1&#45;&gt;Node2 -->
<g id="edge1" class="edge"><title>Node1&#45;&gt;Node2</title>
<path fill="none" stroke="midnightblue" d="M134.782,-118.943C158.179,-128.522 187.408,-139.994 214,-149 224.229,-152.465 235.233,-155.852 245.878,-158.96"/>
<polygon fill="midnightblue" stroke="midnightblue" points="136.044,-115.678 125.465,-115.103 133.376,-122.15 136.044,-115.678"/>
</g>
<!-- Node3 -->
<g id="node3" class="node"><title>Node3</title>
<g id="a_node3"><a xlink:href="classic_1_1populacional_1_1algoritmo_1_1operadores_1_1_mutador_3_01_t_01extends_01_ser_01_4.html" target="_top" xlink:title="ic.populacional.algoritmo.operadores.\lMutador\&lt; T extends Ser \&gt;">
<polygon fill="white" stroke="black" points="214,-110 214,-140 392,-140 392,-110 214,-110"/>
<text text-anchor="start" x="222" y="-128" font-family="Helvetica,sans-Serif" font-size="10.00">ic.populacional.algoritmo.operadores.</text>
<text text-anchor="middle" x="303" y="-117" font-family="Helvetica,sans-Serif" font-size="10.00">Mutador&lt; T extends Ser &gt;</text>
</a>
</g>
</g>
<!-- Node1&#45;&gt;Node3 -->
<g id="edge2" class="edge"><title>Node1&#45;&gt;Node3</title>
<path fill="none" stroke="midnightblue" d="M188.107,-111.569C196.7,-112.583 205.363,-113.604 213.868,-114.607"/>
<polygon fill="midnightblue" stroke="midnightblue" points="188.406,-108.08 178.065,-110.385 187.587,-115.032 188.406,-108.08"/>
</g>
<!-- Node4 -->
<g id="node4" class="node"><title>Node4</title>
<g id="a_node4"><a xlink:href="classic_1_1populacional_1_1algoritmo_1_1operadores_1_1_recombinador_3_01_s_01extends_01_ser_01_4.html" target="_top" xlink:title="Operador de recombinação. ">
<polygon fill="white" stroke="black" points="214,-61 214,-91 392,-91 392,-61 214,-61"/>
<text text-anchor="start" x="222" y="-79" font-family="Helvetica,sans-Serif" font-size="10.00">ic.populacional.algoritmo.operadores.</text>
<text text-anchor="middle" x="303" y="-68" font-family="Helvetica,sans-Serif" font-size="10.00">Recombinador&lt; S extends Ser &gt;</text>
</a>
</g>
</g>
<!-- Node1&#45;&gt;Node4 -->
<g id="edge3" class="edge"><title>Node1&#45;&gt;Node4</title>
<path fill="none" stroke="midnightblue" d="M188.107,-88.8935C196.7,-87.9207 205.363,-86.94 213.868,-85.9773"/>
<polygon fill="midnightblue" stroke="midnightblue" points="187.608,-85.4276 178.065,-90.0303 188.396,-92.3831 187.608,-85.4276"/>
</g>
<!-- Node5 -->
<g id="node5" class="node"><title>Node5</title>
<g id="a_node5"><a xlink:href="classic_1_1populacional_1_1algoritmo_1_1operadores_1_1_seletor_3_01_g_01extends_01_number_00_01_23b601396f2a06ce9087495b09b33964.html" target="_top" xlink:title="ic.populacional.algoritmo.operadores.\lSeletor\&lt; G extends Number, S\l extends Ser\&lt; G \&gt; \&gt;">
<polygon fill="white" stroke="black" points="214,-0.5 214,-41.5 392,-41.5 392,-0.5 214,-0.5"/>
<text text-anchor="start" x="222" y="-29.5" font-family="Helvetica,sans-Serif" font-size="10.00">ic.populacional.algoritmo.operadores.</text>
<text text-anchor="start" x="222" y="-18.5" font-family="Helvetica,sans-Serif" font-size="10.00">Seletor&lt; G extends Number, S</text>
<text text-anchor="middle" x="303" y="-7.5" font-family="Helvetica,sans-Serif" font-size="10.00"> extends Ser&lt; G &gt; &gt;</text>
</a>
</g>
</g>
<!-- Node1&#45;&gt;Node5 -->
<g id="edge4" class="edge"><title>Node1&#45;&gt;Node5</title>
<path fill="none" stroke="midnightblue" d="M137.419,-81.2526C160.468,-72.2401 188.612,-61.3831 214,-52 223.268,-48.5747 233.116,-45.0216 242.741,-41.5961"/>
<polygon fill="midnightblue" stroke="midnightblue" points="135.909,-78.0852 127.875,-84.9926 138.463,-84.6026 135.909,-78.0852"/>
</g>
</g>
</svg>
