<?xml version="1.0" encoding="UTF-8" standalone="no"?>
<!DOCTYPE svg PUBLIC "-//W3C//DTD SVG 1.1//EN"
 "http://www.w3.org/Graphics/SVG/1.1/DTD/svg11.dtd">
<!-- Generated by graphviz version 2.36.0 (20140111.2315)
 -->
<!-- Title: Gráfico de Hierarquia de Classes Pages: 1 -->
<svg width="320pt" height="121pt"
 viewBox="0.00 0.00 320.00 121.00" xmlns="http://www.w3.org/2000/svg" xmlns:xlink="http://www.w3.org/1999/xlink">
<g id="graph0" class="graph" transform="scale(1 1) rotate(0) translate(4 117)">
<title>Gráfico de Hierarquia de Classes</title>
<polygon fill="white" stroke="none" points="-4,4 -4,-117 316,-117 316,4 -4,4"/>
<!-- Node1 -->
<g id="node1" class="node"><title>Node1</title>
<polygon fill="white" stroke="#bfbfbf" points="0,-49.5 0,-68.5 116,-68.5 116,-49.5 0,-49.5"/>
<text text-anchor="middle" x="58" y="-56.5" font-family="Helvetica,sans-Serif" font-size="10.00">AlgoritmoEvolucionario</text>
</g>
<!-- Node2 -->
<g id="node2" class="node"><title>Node2</title>
<g id="a_node2"><a xlink:href="classic_1_1populacional_1_1algoritmo_1_1_a_g_simples_3_01_g_01extends_01_number_00_01_s_01extends_01_ser_3_01_g_01_4_01_4.html" target="_top" xlink:title="AG simples (SGA) ou canônico. ">
<polygon fill="white" stroke="black" points="152,-71.5 152,-112.5 312,-112.5 312,-71.5 152,-71.5"/>
<text text-anchor="start" x="160" y="-100.5" font-family="Helvetica,sans-Serif" font-size="10.00">ic.populacional.algoritmo.</text>
<text text-anchor="start" x="160" y="-89.5" font-family="Helvetica,sans-Serif" font-size="10.00">AGSimples&lt; G extends Number,</text>
<text text-anchor="middle" x="232" y="-78.5" font-family="Helvetica,sans-Serif" font-size="10.00"> S extends Ser&lt; G &gt; &gt;</text>
</a>
</g>
</g>
<!-- Node1&#45;&gt;Node2 -->
<g id="edge1" class="edge"><title>Node1&#45;&gt;Node2</title>
<path fill="none" stroke="midnightblue" d="M118.785,-70.4704C129.469,-72.5202 140.749,-74.6844 151.875,-76.819"/>
<polygon fill="midnightblue" stroke="midnightblue" points="119.23,-66.992 108.75,-68.545 117.911,-73.8666 119.23,-66.992"/>
</g>
<!-- Node3 -->
<g id="node3" class="node"><title>Node3</title>
<g id="a_node3"><a xlink:href="classic_1_1populacional_1_1algoritmo_1_1_programacao_evolucionaria_3_01_g_01extends_01_number_00132d0159107691234e2d806b9bd9cb38.html" target="_top" xlink:title="Programação Evolucionária (PE). ">
<polygon fill="white" stroke="black" points="153,-0 153,-52 311,-52 311,-0 153,-0"/>
<text text-anchor="start" x="161" y="-40" font-family="Helvetica,sans-Serif" font-size="10.00">ic.populacional.algoritmo.</text>
<text text-anchor="start" x="161" y="-29" font-family="Helvetica,sans-Serif" font-size="10.00">ProgramacaoEvolucionaria</text>
<text text-anchor="start" x="161" y="-18" font-family="Helvetica,sans-Serif" font-size="10.00">&lt; G extends Number, S extends</text>
<text text-anchor="middle" x="232" y="-7" font-family="Helvetica,sans-Serif" font-size="10.00"> Ser&lt; G &gt; &gt;</text>
</a>
</g>
</g>
<!-- Node1&#45;&gt;Node3 -->
<g id="edge2" class="edge"><title>Node1&#45;&gt;Node3</title>
<path fill="none" stroke="midnightblue" d="M118.673,-47.551C129.701,-45.4353 141.367,-43.1969 152.846,-40.9946"/>
<polygon fill="midnightblue" stroke="midnightblue" points="117.911,-44.1334 108.75,-49.455 119.23,-51.008 117.911,-44.1334"/>
</g>
</g>
</svg>
