<?xml version="1.0" encoding="UTF-8" standalone="no"?>
<!DOCTYPE svg PUBLIC "-//W3C//DTD SVG 1.1//EN"
 "http://www.w3.org/Graphics/SVG/1.1/DTD/svg11.dtd">
<!-- Generated by graphviz version 2.36.0 (20140111.2315)
 -->
<!-- Title: Gráfico de Hierarquia de Classes Pages: 1 -->
<svg width="270pt" height="50pt"
 viewBox="0.00 0.00 270.00 50.00" xmlns="http://www.w3.org/2000/svg" xmlns:xlink="http://www.w3.org/1999/xlink">
<g id="graph0" class="graph" transform="scale(1 1) rotate(0) translate(4 46)">
<title>Gráfico de Hierarquia de Classes</title>
<polygon fill="white" stroke="none" points="-4,4 -4,-46 266,-46 266,4 -4,4"/>
<!-- Node1 -->
<g id="node1" class="node"><title>Node1</title>
<polygon fill="white" stroke="#bfbfbf" points="0.5,-11.5 0.5,-30.5 67.5,-30.5 67.5,-11.5 0.5,-11.5"/>
<text text-anchor="middle" x="34" y="-18.5" font-family="Helvetica,sans-Serif" font-size="10.00">Comparator</text>
</g>
<!-- Node2 -->
<g id="node2" class="node"><title>Node2</title>
<g id="a_node2"><a xlink:href="classic_1_1populacional_1_1_ambiente_3_01_g_01extends_01_number_00_01_s_01extends_01_ser_3_01_g_01_4_01_4.html" target="_top" xlink:title="ic.populacional.Ambiente\l\&lt; G extends Number, S extends\l Ser\&lt; G \&gt; \&gt;">
<polygon fill="white" stroke="black" points="104,-0.5 104,-41.5 262,-41.5 262,-0.5 104,-0.5"/>
<text text-anchor="start" x="112" y="-29.5" font-family="Helvetica,sans-Serif" font-size="10.00">ic.populacional.Ambiente</text>
<text text-anchor="start" x="112" y="-18.5" font-family="Helvetica,sans-Serif" font-size="10.00">&lt; G extends Number, S extends</text>
<text text-anchor="middle" x="183" y="-7.5" font-family="Helvetica,sans-Serif" font-size="10.00"> Ser&lt; G &gt; &gt;</text>
</a>
</g>
</g>
<!-- Node1&#45;&gt;Node2 -->
<g id="edge1" class="edge"><title>Node1&#45;&gt;Node2</title>
<path fill="none" stroke="midnightblue" d="M77.6851,-21C85.9264,-21 94.7988,-21 103.766,-21"/>
<polygon fill="midnightblue" stroke="midnightblue" points="77.6241,-17.5001 67.6241,-21 77.624,-24.5001 77.6241,-17.5001"/>
</g>
</g>
</svg>
